<svg width="170" height="140" viewBox="0 0 170 140" fill="none" xmlns="http://www.w3.org/2000/svg">
<path d="M167.314 101.135L102.468 138.573C100.848 139.508 99.0114 140 97.1416 140C95.2717 140 93.4349 139.508 91.8156 138.573L2.14997 86.8077C1.49607 86.4286 0.953273 85.8843 0.575943 85.2294C0.198613 84.5745 0 83.8319 0 83.076C0 82.3202 0.198613 81.5776 0.575943 80.9227C0.953273 80.2678 1.49607 79.7235 2.14997 79.3444L68.7249 40.7091C69.5757 40.2167 70.5412 39.9575 71.5242 39.9575C72.5072 39.9575 73.4727 40.2167 74.3235 40.7091L167.309 94.3974C167.9 94.7394 168.39 95.2304 168.731 95.8214C169.072 96.4124 169.252 97.0826 169.252 97.7649C169.253 98.4473 169.074 99.1177 168.734 99.7092C168.394 100.301 167.904 100.792 167.314 101.135Z" fill="#92ACF2"/>
<path d="M69.1873 100.536C68.9828 100.536 68.3402 100.488 68.1016 100.488C67.3464 101 66.4665 101.297 65.5555 101.349C64.4531 101.51 63.3304 101.255 62.4056 100.634L62.2158 102.323C62.1087 103.623 63.8077 103.365 64.4504 103.336C65.7027 103.269 66.9453 103.078 68.1601 102.766C68.6469 102.649 70.195 102.401 70.2827 101.607C70.3703 100.814 70.1123 100.648 69.1873 100.536Z" fill="#FF666D"/>
<path d="M66.2465 95.8774C66.2465 95.8774 65.2728 100.454 65.7207 100.434C66.1686 100.415 69.1869 100.536 69.1869 100.536C68.9128 101.098 68.5014 101.582 67.9909 101.943C67.4803 102.303 66.8871 102.53 66.2659 102.601C64.0216 102.927 62.4199 100.653 62.4199 100.653L63.3108 94.9426" fill="#E4A05B"/>
<path d="M62.0263 93.7595L61.3594 97.4011C61.3594 97.4011 62.4061 98.477 65.9308 98.3504C69.4555 98.2238 65.9308 91.9144 65.9308 91.9144" fill="#2E2401"/>
<path d="M59.9668 84.9527C59.9668 84.9527 63.9004 81.798 66.5099 81.4231C69.1193 81.0483 70.4825 83.8865 70.2975 85.7803C70.1125 87.6741 63.8615 88.7014 63.8615 88.7014" fill="#EDBAB9"/>
<path d="M72.8484 103.263C72.6439 103.263 72.0013 103.214 71.7628 103.214C71.0075 103.726 70.1276 104.024 69.2166 104.076C68.1142 104.236 66.9915 103.981 66.0668 103.36L65.872 105.03C65.7649 106.33 67.464 106.072 68.1066 106.043C69.3589 105.975 70.6016 105.785 71.8163 105.473C72.3031 105.356 73.8513 105.108 73.9389 104.314C74.0265 103.521 73.7783 103.37 72.8484 103.263Z" fill="#FF666D"/>
<path d="M69.9076 98.6036C69.9076 98.6036 68.9339 103.18 69.3818 103.16C69.8297 103.141 72.8481 103.263 72.8481 103.263C72.5739 103.824 72.1625 104.308 71.652 104.669C71.1414 105.03 70.5482 105.256 69.9271 105.327C67.6828 105.653 66.0811 103.379 66.0811 103.379L66.972 97.6689" fill="#FCBF81"/>
<path d="M60.2148 85.0988C60.2148 85.0988 64.1485 81.9441 66.7579 81.5692C69.3674 81.1943 70.7305 84.0326 70.5455 85.9264C70.3605 87.8202 64.1095 88.8474 64.1095 88.8474" fill="#EDBAB9"/>
<path d="M62.3132 86.1502C62.8 85.6634 69.4989 82.5623 71.8503 83.9838C74.2017 85.4054 74.0557 86.4618 73.7587 88.1949C73.4617 89.9281 71.1882 99.2656 71.1882 99.2656C69.4773 99.9262 67.5985 100.015 65.833 99.5188L66.4902 92.5813L57.5957 87.713" fill="#6B460E"/>
<path d="M62.367 85.4298L64.475 87.012L73.4767 82.3822L67.4594 78.1029L59.0273 82.8836L62.367 85.4298Z" fill="#E9121C"/>
<path d="M40.104 83.76L39.5782 86.1942C40.2789 86.0543 40.9912 85.981 41.7057 85.9751C42.2509 86.0481 42.9471 87.0169 42.2656 87.6741C41.584 88.3314 40.4253 88.2681 39.2618 88.5407C38.0982 88.8133 37.9181 88.8669 37.1732 88.6575C36.4284 88.4482 36.3164 87.4356 36.3164 87.4356L36.9006 83.1904" fill="#E55600"/>
<path d="M36.2578 81.3891L35.5908 85.0306C35.5908 85.0306 36.6375 86.1065 40.1622 85.9799C43.6869 85.8534 40.1622 79.5439 40.1622 79.5439" fill="#2E2401"/>
<path d="M31.6814 91.7392C34.4535 91.7392 36.7007 90.9044 36.7007 89.8747C36.7007 88.8449 34.4535 88.0101 31.6814 88.0101C28.9093 88.0101 26.6621 88.8449 26.6621 89.8747C26.6621 90.9044 28.9093 91.7392 31.6814 91.7392Z" fill="#FF666D"/>
<path d="M30.834 81.5352L31.0287 89.0422H32.5282V81.5352" fill="#FF666D"/>
<path d="M44.2075 85.756L43.6817 88.1902C44.3824 88.0503 45.0947 87.977 45.8092 87.9711C46.3545 88.0441 47.0506 89.0129 46.3691 89.6702C45.6875 90.3274 44.5288 90.2641 43.3653 90.5367C42.2017 90.8094 42.0216 90.8629 41.2768 90.6536C40.5319 90.4442 40.4199 89.4316 40.4199 89.4316L41.0041 85.1864" fill="#E55600"/>
<path d="M77.4201 32.5593L79.9176 28.0317L81.3586 25.7046L75.7892 22.9978L72.2158 30.3296L77.4201 32.5593Z" fill="#C3F362"/>
<path d="M83.2329 31.7268L81.6458 29.9645C81.5168 29.8494 81.4009 29.7204 81.3002 29.5799C81.2149 29.3431 81.1833 29.0904 81.2077 28.8399C81.1791 28.476 81.1089 28.1167 80.9984 27.7688C80.968 27.6707 80.9038 27.5865 80.8171 27.5313C80.7304 27.4761 80.627 27.4536 80.5252 27.4676C80.4234 27.4816 80.3299 27.5314 80.2615 27.608C80.193 27.6845 80.1539 27.783 80.1513 27.8857C80.1513 28.1096 80.1513 28.3384 80.1513 28.5624L79.7667 28.2167C79.2457 29.1612 78.7102 30.1008 78.1406 31.0209C78.4522 31.0209 78.7686 31.0209 79.0851 31.0209C80.2172 31.6942 81.2224 32.5609 82.0548 33.5817C82.102 33.6337 82.162 33.6725 82.2289 33.6943C82.2957 33.716 82.3671 33.72 82.4359 33.7057C82.5047 33.6914 82.5686 33.6595 82.6213 33.613C82.674 33.5665 82.7137 33.507 82.7364 33.4405C82.7817 33.4311 82.8259 33.4164 82.8678 33.3967C82.9642 33.3371 83.0341 33.2427 83.0631 33.1332C83.092 33.0236 83.0779 32.9071 83.0236 32.8076C83.0044 32.7603 82.9754 32.7176 82.9385 32.6823C82.9015 32.6471 82.8575 32.6201 82.8094 32.6031C82.7218 32.5009 82.639 32.3987 82.5562 32.2916L82.6098 32.35C82.9944 32.7492 83.6029 32.1406 83.2329 31.7268Z" fill="#FCBF81"/>
<path d="M79.9955 30.3735C79.8217 30.1298 79.7097 29.8474 79.6693 29.5507C79.685 29.2549 79.7979 28.9725 79.9907 28.7475C80.0637 28.6404 79.8933 28.543 79.8203 28.6501C79.6099 28.9046 79.4885 29.2209 79.4746 29.5507C79.5156 29.882 79.6377 30.198 79.83 30.4709C79.8448 30.4885 79.8654 30.5003 79.8881 30.5042C79.9108 30.5081 79.9341 30.5039 79.9539 30.4922C79.9738 30.4805 79.9889 30.4622 79.9965 30.4405C80.0041 30.4187 80.0037 30.395 79.9955 30.3735Z" fill="#A0722D"/>
<path d="M85.0439 3.07163V37.564C85.0445 38.108 85.1894 38.6421 85.464 39.1117C85.7386 39.5812 86.1329 39.9695 86.6067 40.2368L142.739 71.9785C143.206 72.2432 143.735 72.3808 144.272 72.3775C144.809 72.3742 145.336 72.2301 145.8 71.9597C146.264 71.6893 146.649 71.3019 146.916 70.8362C147.184 70.3706 147.325 69.8429 147.325 69.3058V36.5806C147.323 36.0503 147.184 35.5294 146.921 35.0687C146.659 34.608 146.281 34.2232 145.826 33.9517L89.6884 0.432979C89.2221 0.155127 88.6905 0.00578809 88.1477 0.00016489C87.6049 -0.00545831 87.0704 0.132835 86.5984 0.400967C86.1265 0.669099 85.734 1.05749 85.4609 1.52662C85.1879 1.99574 85.044 2.52883 85.0439 3.07163Z" fill="#021E6A"/>
<path d="M108.023 29.3267L107.292 29.5166C107.46 29.3906 107.575 29.2065 107.614 29.0005C107.629 28.9307 107.625 28.8578 107.6 28.7905C107.576 28.7232 107.533 28.6643 107.476 28.6208C107.419 28.5773 107.351 28.5509 107.28 28.5449C107.208 28.5388 107.137 28.5534 107.073 28.5867C106.424 28.9113 105.765 29.2358 105.097 29.5604L105.136 29.4143C105.243 29.1017 105.283 28.7698 105.252 28.4407C105.111 27.8857 104.61 28.1924 104.405 28.6305C104.128 29.2147 104.069 29.8427 103.544 30.3052C103.236 30.5138 102.888 30.6548 102.521 30.7191C102.151 30.8262 101.781 30.9235 101.411 31.0209C101.336 31.0445 101.271 31.0915 101.224 31.155C101.177 31.2184 101.152 31.2951 101.152 31.3739C101.152 31.4526 101.177 31.5293 101.224 31.5927C101.271 31.6562 101.336 31.7032 101.411 31.7268C101.358 31.7614 101.315 31.8093 101.287 31.8657C101.258 31.9221 101.245 31.9851 101.248 32.0482C101.252 32.1114 101.272 32.1725 101.307 32.2255C101.341 32.2785 101.389 32.3214 101.445 32.35C101.28 32.6177 101.47 33.051 101.825 32.905C102.693 32.553 103.593 32.2872 104.512 32.1114C105.418 32.0627 106.32 31.9865 107.219 31.8826C107.682 31.829 107.706 31.1085 107.219 31.1475H107.151L107.964 31.0112C108.368 30.943 108.281 30.2371 107.867 30.2906H107.769L107.502 30.3296L107.886 30.203C108.125 30.1202 108.344 30.0667 108.466 29.8281C108.493 29.7637 108.502 29.6928 108.491 29.6235C108.48 29.5543 108.449 29.4896 108.403 29.4371C108.357 29.3845 108.296 29.3462 108.229 29.3267C108.161 29.3072 108.09 29.3072 108.023 29.3267Z" fill="#FCBF81"/>
<path d="M105.101 29.9499C105.092 29.9331 105.078 29.9199 105.061 29.9124C105.043 29.905 105.024 29.9037 105.006 29.9088C104.987 29.9139 104.971 29.9252 104.961 29.9406C104.95 29.956 104.944 29.9748 104.945 29.9937C105.009 30.225 105.007 30.4697 104.938 30.6997C104.869 30.9296 104.737 31.1355 104.556 31.2935C104.478 31.3617 104.595 31.4785 104.673 31.4104C104.872 31.2298 105.017 30.998 105.092 30.7403C105.168 30.4827 105.171 30.2092 105.101 29.9499Z" fill="#A0722D"/>
<path d="M107.34 29.3949C106.747 29.5507 106.159 29.7324 105.578 29.9402C105.481 29.9742 105.525 30.1349 105.622 30.096C106.203 29.8915 106.79 29.7097 107.384 29.5507C107.401 29.5419 107.414 29.5275 107.422 29.5101C107.429 29.4928 107.43 29.4733 107.425 29.4551C107.42 29.4369 107.409 29.421 107.394 29.41C107.378 29.3991 107.359 29.3937 107.34 29.3949Z" fill="#A0722D"/>
<path d="M107.755 30.2323L105.88 30.5195C105.778 30.5195 105.822 30.6948 105.924 30.6753L107.799 30.3881C107.901 30.3735 107.857 30.2128 107.755 30.2323Z" fill="#A0722D"/>
<path d="M107.419 31.0647C106.916 31.0972 106.411 31.1199 105.905 31.1329C105.797 31.1329 105.797 31.2984 105.905 31.2984C106.411 31.2984 106.916 31.2757 107.419 31.2303C107.521 31.2205 107.521 31.0599 107.419 31.0647Z" fill="#A0722D"/>
<path d="M155.776 94.9377C155.525 95.061 155.265 95.1652 154.997 95.2493C153.866 94.865 152.639 94.865 151.507 95.2493C151.445 95.2674 151.391 95.305 151.353 95.3563C151.315 95.4076 151.294 95.47 151.294 95.5341C151.294 95.5981 151.315 95.6605 151.353 95.7118C151.391 95.7632 151.445 95.8007 151.507 95.8189C152.637 96.1684 153.844 96.1836 154.983 95.8627C155.114 95.9114 155.241 95.9649 155.367 96.0282C155.669 96.1743 155.937 95.7945 155.762 95.5852L156.078 95.444C156.419 95.2931 156.117 94.7673 155.776 94.9377Z" fill="#007058"/>
<path d="M41.7733 64.7345C41.34 66.195 40.6877 67.7139 39.3391 68.5075C37.8786 69.3497 36.0773 69.1209 34.5146 68.7801C34.203 68.7119 34.0716 69.189 34.3831 69.2669C36.0822 69.6369 38.0149 69.8609 39.5923 68.9456C41.0528 68.0888 41.7977 66.4433 42.2699 64.8805C42.2795 64.8479 42.2826 64.8138 42.2789 64.78C42.2753 64.7462 42.2651 64.7134 42.2488 64.6836C42.2325 64.6537 42.2105 64.6274 42.1841 64.6061C42.1576 64.5847 42.1272 64.5688 42.0946 64.5592C42.062 64.5496 42.0279 64.5466 41.9941 64.5502C41.9603 64.5538 41.9275 64.564 41.8977 64.5803C41.8678 64.5966 41.8415 64.6186 41.8202 64.645C41.7988 64.6715 41.7829 64.7019 41.7733 64.7345Z" fill="#E55600"/>
<path d="M41.3309 70.7079C39.8282 71.0324 38.3125 71.2872 36.7839 71.4722C36.7499 71.475 36.7169 71.4847 36.6868 71.5006C36.6567 71.5165 36.6301 71.5383 36.6086 71.5647C36.4334 71.0357 36.2841 70.4985 36.1607 69.9533C36.0926 69.6417 35.6155 69.7731 35.6739 70.0847C35.9553 71.3247 36.3733 72.5297 36.9202 73.6776C37.0565 73.9648 37.4801 73.7165 37.3486 73.4293C37.1198 72.9425 36.9202 72.4556 36.7401 71.9688H36.7741C38.345 71.7838 39.9045 71.5241 41.4526 71.1898C41.774 71.1119 41.6425 70.6397 41.3309 70.7079Z" fill="#008074"/>
<path d="M37.2709 74.1888C36.8695 74.8563 36.3537 75.4479 35.7471 75.9365C35.4988 76.1361 35.8493 76.4866 36.0976 76.287C36.7353 75.7704 37.2774 75.1459 37.6993 74.4419C37.7329 74.3851 37.7425 74.3173 37.7261 74.2534C37.7096 74.1895 37.6685 74.1347 37.6117 74.1011C37.5549 74.0676 37.487 74.0579 37.4231 74.0744C37.3592 74.0908 37.3045 74.1319 37.2709 74.1888Z" fill="#008074"/>
<path d="M84.2938 60.7715C84.2938 60.7715 84.2451 63.1668 83.9627 63.5416C83.6803 63.9165 81.1683 65.2504 81.0417 65.859C80.9151 66.4675 81.3484 67.3195 82.546 67.0128C83.7436 66.7061 86.6257 64.8171 86.6257 64.8171V59.6323" fill="#007058"/>
<path d="M93.9136 63.4978L94.2203 66.0975C94.2203 66.0975 93.12 70.1042 93.5582 70.591C93.9963 71.0779 95.5834 71.6037 96.2017 70.591C96.82 69.5784 95.9388 65.8347 95.9388 65.8347L95.895 63.0159" fill="#007058"/>
<path d="M88.1356 35.9915C88.1356 35.9915 85.0199 48.6493 84.8835 50.5966C84.7472 52.544 83.8125 61.9691 83.8125 61.9691C83.8125 61.9691 86.7725 63.2836 88.7685 62.6166L90.3264 50.7281L92.0741 38.2699C92.0741 38.2699 88.8805 35.0909 88.1356 35.9915Z" fill="#FF666D"/>
<path d="M94.1137 38.9758C96.3142 48.3036 96.5479 55.3482 97.692 63.5027C97.692 63.5027 92.9259 65.2407 91.8743 63.5562C91.1635 55.2459 90.589 46.9113 90.3213 38.5766L94.1137 38.9758Z" fill="#FF666D"/>
<path d="M102.852 29.0833C100.851 29.8428 98.4703 30.5438 96.8394 30.3199C94.7886 30.0436 92.7742 29.544 90.8319 28.8302C90.569 28.7425 87.721 27.652 86.6645 28.5916C85.6081 29.5312 85.8905 32.5885 85.8905 32.5885L82.0445 29.2586C80.618 29.7698 80.0533 31.2449 79.917 32.7102L80.063 32.8612C80.3389 33.1857 80.618 33.5103 80.9004 33.8348C82.1613 35.2515 83.6072 36.8873 85.4621 37.5056C86.1955 37.7188 86.9802 37.6706 87.682 37.3693C88.2322 37.1648 89.0403 36.493 89.6294 36.712C89.7852 36.7705 89.9312 36.8824 90.1162 36.863C90.5592 36.8094 91.1532 36.1035 91.5767 35.8893C92.7305 35.2905 94.0839 35.198 95.3546 35.1347C96.7419 35.0863 98.1235 34.9333 99.4878 34.6771C99.887 34.5943 104.142 33.5038 104.234 33.7034C103.524 32.2493 103.057 30.6886 102.852 29.0833Z" fill="#7FAE1A"/>
<path d="M87.8678 26.2354C87.5854 27.5693 87.824 29.4144 89.2504 29.6432C91.0906 29.9158 91.5483 28.6695 91.4509 27.1263C91.373 25.9043 90.7352 23.991 89.0849 24.546C88.6789 24.7013 88.3479 25.0062 88.1599 25.398C88.0265 25.6632 87.9283 25.9447 87.8678 26.2354Z" fill="#FCBF81"/>
<path d="M87.7598 26.5324C87.3899 26.3413 87.0846 26.0454 86.882 25.6817C86.6794 25.3181 86.5885 24.9028 86.6206 24.4877C86.6985 23.6698 87.492 22.6231 88.4121 23.0272C89.0353 23.2901 88.8649 23.3095 88.8649 23.3095C89.0108 23.1366 89.1996 23.0051 89.4124 22.9282C89.6251 22.8513 89.8544 22.8317 90.0771 22.8714C90.9485 22.9493 91.0995 23.4799 91.0995 23.4799C91.0995 23.4799 92.0731 23.811 92.3506 24.4536C92.6476 25.1741 91.9709 27.3211 91.6496 27.9248C91.3283 28.5284 91.1384 27.3016 91.0264 26.8099C90.9881 26.6119 90.9013 26.4265 90.7739 26.2702C90.6465 26.1139 90.4824 25.9916 90.2962 25.9141C89.7607 25.7681 89.4929 26.2452 89.0694 26.4448C88.8713 26.5557 88.651 26.6211 88.4244 26.6363C88.1979 26.6515 87.9709 26.616 87.7598 26.5324Z" fill="#7C7108"/>
<path d="M91.2314 39.5016C92.2168 39.5112 93.195 39.3327 94.1135 38.9759L94.3082 32.8661L86.9424 36.3177C86.9424 36.3177 87.2199 37.7782 87.5315 39.1463C88.734 39.483 89.9868 39.6033 91.2314 39.5016Z" fill="#7FAE1A"/>
<path d="M34.1982 72.5822C34.1982 72.5822 38.1319 69.4275 40.7413 69.0527C43.3508 68.6778 44.7139 71.5161 44.5289 73.4098C44.3439 75.3036 38.0929 76.3309 38.0929 76.3309" fill="#2E2401"/>
<path d="M36.2917 73.6338C36.7785 73.1469 43.4774 70.0458 45.8288 71.4673C48.1803 72.8889 48.0342 73.9453 47.7372 75.6785C47.4403 77.4116 45.1813 86.7443 45.1813 86.7443C43.4705 87.4048 41.5917 87.4936 39.8261 86.9974L40.4834 80.06L31.5889 75.1916" fill="#6B460E"/>
<path d="M31.4235 62.4755C31.7789 62.7384 34.8314 63.1035 35.4594 64.5056C36.0874 65.9077 37.066 73.1567 37.066 73.1567C37.066 73.1567 35.2354 75.883 32.0661 74.9142C31.1265 74.6269 26.2533 65.7178 26.1219 64.7928C25.7859 62.3879 31.4235 62.4755 31.4235 62.4755Z" fill="#E55600"/>
<path d="M25.4157 78.1273C25.2612 77.7608 25.1342 77.3833 25.036 76.9978C24.2911 74.0768 23.7994 63.0694 28.7408 63.5173C34.1642 64.0041 32.3337 77.5918 37.8301 77.1731C43.3265 76.7544 45.5805 78.1857 43.3313 80.3181C38.8524 84.5827 28.1712 84.6704 25.4157 78.1273Z" fill="#021E6A"/>
<path d="M32.5922 57.8066C32.636 58.0695 33.079 61.7695 31.9982 62.602C30.9175 63.4345 28.4443 61.4676 28.381 60.4891C28.3177 59.5106 27.4901 57.4756 28.5368 56.9644C29.5835 56.4532 32.2952 55.9615 32.5922 57.8066Z" fill="#FCBF81"/>
<path d="M32.5915 57.8067C32.5915 57.8067 33.5116 57.096 33.6722 56.4533C33.8329 55.8107 33.0393 55.3482 32.2653 55.3482C31.4912 55.3482 30.834 55.5478 30.167 55.1486C29.8093 54.9455 29.4051 54.8387 28.9937 54.8387C28.5824 54.8387 28.1781 54.9455 27.8205 55.1486C27.1924 55.577 27.0853 56.6091 26.6618 57.1398C26.2382 57.6704 25.4301 57.7288 25.4496 58.7171C25.469 59.7054 26.9101 59.8076 27.022 60.4697C27.134 61.1318 27.4797 62.1006 28.3706 62.2662C29.2615 62.4317 30.4835 62.4512 30.5857 62.3197C30.6879 62.1883 30.0258 59.9732 30.6392 59.8271C31.2527 59.6811 32.6304 59.3598 32.5915 57.8067Z" fill="#A6D647"/>
<path d="M45.1818 57.169C45.1785 56.7368 45.0195 56.3202 44.7339 55.9957C44.7054 55.9644 44.6705 55.9395 44.6316 55.9227C44.5976 55.5186 44.4856 55.1145 44.1448 54.9734C44.0876 54.9563 44.0267 54.9563 43.9695 54.9734C43.9291 54.966 43.8874 54.9678 43.8478 54.9788C43.8081 54.9898 43.7714 55.0096 43.7405 55.0367C43.7096 55.0639 43.6853 55.0977 43.6693 55.1356C43.6533 55.1736 43.6461 55.2146 43.6482 55.2557V55.6939C43.6106 55.5953 43.5401 55.5127 43.4486 55.4602C43.3915 55.4278 43.3269 55.4107 43.2612 55.4107C43.1955 55.4107 43.1309 55.4278 43.0738 55.4602C43.0088 55.4699 42.9499 55.504 42.9092 55.5555C42.8685 55.6071 42.849 55.6722 42.8547 55.7377L42.9277 57.5925C42.8352 57.2469 42.6356 56.5702 42.139 56.9256C41.7496 57.2031 42.0319 57.9674 42.0952 58.3277C42.2108 59.0605 42.3833 59.7832 42.6113 60.4892C42.6302 60.5456 42.6659 60.5948 42.7135 60.6304C42.6973 60.705 42.6778 60.7797 42.6551 60.8543C42.5285 61.3412 42.3971 61.9935 42.0222 62.3149C41.735 62.5631 42.1536 62.9818 42.4409 62.7335L42.4798 62.6946C42.3825 63.011 42.8742 63.2301 43.0202 62.9234L43.0786 62.8114C43.1056 62.839 43.1368 62.862 43.1711 62.8796C43.1711 62.9429 43.1225 63.0062 43.103 63.0695C42.9861 63.4346 43.5606 63.5904 43.6726 63.2252C43.6953 63.2703 43.7301 63.3082 43.7731 63.3346C43.816 63.3611 43.8655 63.3751 43.916 63.3751C43.9665 63.3751 44.0159 63.3611 44.0589 63.3346C44.1019 63.3082 44.1367 63.2703 44.1594 63.2252C44.2276 63.0792 44.2081 63.5709 44.2665 63.4248C44.4174 63.4881 44.101 62.938 44.1984 62.7676C44.5684 62.0666 45.4885 61.3655 45.4641 59.0969C45.4933 58.5224 45.9218 57.4124 45.1818 57.169Z" fill="#FCBF81"/>
<path d="M43.0395 55.8155C43.0395 55.6889 42.8351 55.6889 42.8399 55.8155C42.8756 56.6042 42.9292 57.3912 43.0006 58.1767C43.0006 58.3032 43.2099 58.3032 43.2002 58.1767C43.132 57.3912 43.0785 56.6042 43.0395 55.8155Z" fill="#A0722D"/>
<path d="M43.8187 55.2264C43.8187 55.2 43.8082 55.1746 43.7895 55.1559C43.7708 55.1372 43.7454 55.1266 43.7189 55.1266C43.6925 55.1266 43.6671 55.1372 43.6484 55.1559C43.6297 55.1746 43.6191 55.2 43.6191 55.2264L43.697 58.4006C43.697 58.4271 43.7075 58.4525 43.7263 58.4712C43.745 58.4899 43.7704 58.5004 43.7968 58.5004C43.8233 58.5004 43.8487 58.4899 43.8674 58.4712C43.8861 58.4525 43.8966 58.4271 43.8966 58.4006L43.8187 55.2264Z" fill="#A0722D"/>
<path d="M44.4949 56.0881L44.4365 58.5223C44.4365 58.5487 44.447 58.5741 44.4658 58.5928C44.4845 58.6116 44.5099 58.6221 44.5363 58.6221C44.5628 58.6221 44.5882 58.6116 44.6069 58.5928C44.6256 58.5741 44.6361 58.5487 44.6361 58.5223L44.6945 56.0881C44.6945 56.0616 44.684 56.0362 44.6653 56.0175C44.6466 55.9988 44.6212 55.9883 44.5947 55.9883C44.5683 55.9883 44.5429 55.9988 44.5242 56.0175C44.5055 56.0362 44.4949 56.0616 44.4949 56.0881Z" fill="#A0722D"/>
<path d="M45.1089 57.2371C45.0797 57.8343 45.0278 58.4298 44.9531 59.0238C44.9531 59.1504 45.1333 59.1504 45.1527 59.0238C45.2306 58.4298 45.2826 57.8343 45.3085 57.2371C45.3085 57.1056 45.1138 57.1105 45.1089 57.2371Z" fill="#A0722D"/>
<path d="M34.2471 63.4346C34.2471 63.4346 37.2509 64.53 38.0298 64.4618C38.8087 64.3937 42.09 60.2117 42.09 60.2117C42.09 60.2117 44.3635 60.8397 45.1035 62.865C45.1035 62.865 40.868 68.9261 39.0181 69.2912C37.1681 69.6564 34.9092 68.746 34.9092 68.746" fill="#E55600"/>
<path d="M53.3795 80.2694C53.3795 80.2694 53.2383 74.9677 55.653 74.8801C58.0677 74.7925 61.2273 76.5305 61.3977 79.3347C61.5681 82.1389 62.0452 87.387 62.0452 88.3704C62.0452 89.3538 60.278 92.9904 60.278 92.9904" fill="#E55600"/>
<path d="M92.4581 108.72C92.4581 108.895 92.317 111.033 92.5555 111.281C92.7941 111.529 93.4172 112.741 94.1913 112.79C94.9654 112.839 95.6859 112.688 95.8271 113.515C95.9682 114.343 91.4455 114.625 91.4455 114.625C91.4455 114.625 90.9587 112.727 90.764 112.78C90.5692 112.834 90.5692 114.874 90.5692 114.874L89.727 115.054L88.8848 114.494L89.2255 110.857L89.7757 107.766" fill="#E55600"/>
<path d="M95.8567 111.773C95.7447 113.058 95.8129 114.781 97.0202 115.565C97.6823 115.993 99.0795 115.599 99.2548 116.539C99.4057 117.366 94.8733 117.673 94.8733 117.673C94.8733 117.673 94.3864 115.779 94.182 115.833C93.9775 115.886 93.997 117.926 93.997 117.926L93.1547 118.111L92.3125 117.556L92.6289 113.915L93.1596 110.818" fill="#E55600"/>
<path d="M93.8654 88.3947L94.4593 87.6012C94.5041 87.5258 94.5277 87.4398 94.5276 87.3522C94.5276 87.2645 94.5039 87.1785 94.459 87.1032C94.4141 87.028 94.3498 86.9662 94.2727 86.9244C94.1956 86.8827 94.1087 86.8625 94.0212 86.866C94.1433 86.6487 94.2366 86.4163 94.2987 86.1747C94.3124 86.0793 94.2949 85.982 94.2489 85.8973C94.2029 85.8126 94.1308 85.745 94.0433 85.7046C93.9559 85.6641 93.8577 85.653 93.7633 85.6728C93.669 85.6926 93.5836 85.7423 93.5197 85.8145L92.5461 87.1435L93.0329 86.2672C93.3201 85.7804 92.512 85.3958 92.2296 85.8875L91.3777 87.348V86.9196C91.3777 86.5301 91.2998 86.0336 90.8032 86.0092C90.6884 85.9985 90.5736 86.0288 90.4791 86.0947C90.3846 86.1607 90.3166 86.2581 90.2871 86.3695C90.2101 86.6895 90.2101 87.0232 90.2871 87.3431C90.3699 87.6985 90.5938 88.1854 90.3894 88.531L89.3816 90.0986C89.3326 90.1602 89.3008 90.2338 89.2896 90.3117C89.2785 90.3896 89.2883 90.4692 89.318 90.542C89.3478 90.6149 89.3964 90.6786 89.4589 90.7264C89.5214 90.7743 89.5956 90.8046 89.6737 90.8143C89.6808 90.8833 89.7034 90.9497 89.7399 91.0087C89.7764 91.0676 89.8259 91.1175 89.8845 91.1546C89.9431 91.1916 90.0094 91.2148 90.0783 91.2225C90.1472 91.2302 90.2169 91.2221 90.2823 91.1989C90.3729 91.2579 90.4824 91.2805 90.589 91.2622C90.6469 91.3385 90.7295 91.3924 90.8228 91.4146C90.916 91.4368 91.014 91.4259 91.1002 91.3839C91.1278 91.4546 91.1733 91.517 91.232 91.5651C91.2908 91.6133 91.3609 91.6455 91.4357 91.6587C91.5105 91.6719 91.5874 91.6656 91.6591 91.6405C91.7308 91.6154 91.7948 91.5723 91.845 91.5153C92.5607 90.6536 93.51 90.0159 94.1624 89.0812C94.1945 89.0175 94.2123 88.9475 94.2144 88.8761C94.2165 88.8048 94.2029 88.7339 94.1746 88.6684C94.1463 88.6029 94.1039 88.5444 94.0504 88.4971C93.997 88.4499 93.9338 88.4149 93.8654 88.3947Z" fill="#DD9C5A"/>
<path d="M84.2158 94.3194C84.376 94.8095 84.6798 95.2401 85.0879 95.5552C85.4959 95.8704 85.9893 96.0555 86.504 96.0867C88.315 96.1889 91.7521 92.3672 91.7521 92.3672C91.7521 92.3672 91.8446 88.9594 90.3451 88.3703C90.3451 88.3703 87.8574 90.5173 87.5117 90.5416C87.1661 90.5659 85.1506 88.6721 85.1506 88.6721" fill="#8B3907"/>
<path d="M94.6734 88.7063L95.1261 87.8251C95.1567 87.7435 95.1648 87.6552 95.1497 87.5695C95.1345 87.4837 95.0966 87.4035 95.0399 87.3374C94.9832 87.2713 94.9098 87.2215 94.8274 87.1934C94.7449 87.1653 94.6564 87.1599 94.5711 87.1776C94.6547 86.942 94.7071 86.6965 94.7269 86.4473C94.7241 86.3512 94.6904 86.2586 94.6308 86.1831C94.5713 86.1077 94.489 86.0534 94.3962 86.0282C94.3034 86.0031 94.205 86.0086 94.1155 86.0437C94.026 86.0788 93.9502 86.1418 93.8993 86.2234L93.1447 87.6839L93.4904 86.7346C93.6851 86.1942 92.8283 85.9654 92.6335 86.496L92.0445 88.1026L91.952 87.6839C91.8692 87.2993 91.7232 86.8271 91.2314 86.8855C91.1173 86.8954 91.0102 86.9452 90.9292 87.0263C90.8482 87.1073 90.7983 87.2143 90.7884 87.3285C90.7722 87.6636 90.8374 87.9977 90.9783 88.3022C91.1195 88.6381 91.4262 89.0811 91.2801 89.456L90.5547 91.1745C90.5177 91.2434 90.4996 91.3209 90.5022 91.399C90.5048 91.4772 90.5281 91.5533 90.5696 91.6196C90.6111 91.6858 90.6695 91.7399 90.7387 91.7763C90.8079 91.8127 90.8855 91.8302 90.9637 91.8269C90.9828 91.893 91.0166 91.9539 91.0626 92.0051C91.1085 92.0564 91.1654 92.0966 91.229 92.1228C91.2927 92.149 91.3614 92.1605 91.4301 92.1565C91.4988 92.1524 91.5657 92.133 91.6258 92.0995C91.726 92.1386 91.8372 92.1386 91.9374 92.0995C92.0074 92.1654 92.0982 92.2048 92.1941 92.211C92.2901 92.2173 92.3852 92.1899 92.4631 92.1336C92.5025 92.1991 92.5582 92.2533 92.6247 92.291C92.6913 92.3286 92.7664 92.3484 92.8429 92.3484C92.9193 92.3484 92.9945 92.3286 93.061 92.291C93.1276 92.2533 93.1832 92.1991 93.2226 92.1336C93.7825 91.1599 94.6052 90.3712 95.0921 89.3489C95.116 89.2789 95.1237 89.2045 95.1145 89.1311C95.1054 89.0578 95.0797 88.9875 95.0393 88.9255C94.999 88.8636 94.9451 88.8117 94.8817 88.7737C94.8183 88.7357 94.747 88.7126 94.6734 88.7063Z" fill="#FCBF81"/>
<path d="M88.4316 107.075L87.7646 110.716C87.7646 110.716 88.8113 111.792 92.336 111.665C95.8607 111.539 92.336 105.229 92.336 105.229" fill="#2E2401"/>
<path d="M83.8562 117.43C86.6283 117.43 88.8755 116.595 88.8755 115.565C88.8755 114.535 86.6283 113.7 83.8562 113.7C81.0841 113.7 78.8369 114.535 78.8369 115.565C78.8369 116.595 81.0841 117.43 83.8562 117.43Z" fill="#FF666D"/>
<path d="M83.0088 107.226L83.2035 114.728H84.6981V107.226" fill="#FF666D"/>
<path d="M93.5048 96.3934C92.0021 96.7179 90.4864 96.9727 88.9577 97.1577C88.9238 97.1605 88.8908 97.1702 88.8607 97.1861C88.8305 97.202 88.8039 97.2238 88.7824 97.2502C88.6072 96.7212 88.4579 96.184 88.3346 95.6388C88.2664 95.3272 87.7893 95.4586 87.8477 95.7702C88.1291 97.0102 88.5471 98.2152 89.094 99.3631C89.2303 99.6503 89.6539 99.402 89.5224 99.1148C89.2936 98.6279 89.094 98.1411 88.9139 97.6543H88.948C90.5188 97.4693 92.0783 97.2096 93.6265 96.8753C93.9478 96.8023 93.8163 96.3252 93.5048 96.3934Z" fill="#008074"/>
<path d="M89.4447 99.8742C89.0433 100.542 88.5275 101.133 87.9209 101.622C87.6726 101.822 88.0232 102.172 88.2714 101.972C88.9092 101.456 89.4513 100.831 89.8731 100.127C89.9067 100.071 89.9163 100.003 89.8999 99.9388C89.8835 99.8749 89.8423 99.8201 89.7855 99.7866C89.7287 99.753 89.6609 99.7434 89.597 99.7598C89.5331 99.7762 89.4783 99.8174 89.4447 99.8742Z" fill="#008074"/>
<path d="M86.3682 98.2677C86.3682 98.2677 90.3018 95.113 92.9112 94.7381C95.5207 94.3633 96.8838 97.2015 96.6988 99.0953C96.5138 100.989 90.2629 102.016 90.2629 102.016" fill="#2E2401"/>
<path d="M88.4665 99.3192C88.9533 98.8323 95.6522 95.7312 98.0036 97.1528C100.355 98.5743 100.209 99.6308 99.912 101.364C99.615 103.097 97.3415 112.435 97.3415 112.435C95.6306 113.095 93.7519 113.184 91.9863 112.688L92.6435 105.75L83.749 100.882" fill="#6B460E"/>
<path d="M83.5973 88.1659C83.9527 88.4288 87.0052 88.7939 87.6332 90.196C88.2612 91.5981 89.2398 98.8471 89.2398 98.8471C89.2398 98.8471 87.4093 101.573 84.24 100.605C83.3004 100.317 78.4271 91.4082 78.2957 90.4832C77.9598 88.0734 83.5973 88.1659 83.5973 88.1659Z" fill="#E55600"/>
<path d="M77.5906 103.818C77.436 103.451 77.309 103.074 77.2108 102.688C76.466 99.7671 75.9742 88.7597 80.9156 89.2076C86.339 89.6945 84.5085 103.282 90.0049 102.863C95.5013 102.445 97.7553 103.876 95.5061 106.008C91.0175 110.268 80.346 110.385 77.5906 103.818Z" fill="#021E6A"/>
<path d="M85.5452 84.3782C85.5793 84.6022 85.9736 87.752 85.0584 88.4628C84.1431 89.1736 82.0302 87.4891 81.9815 86.6664C81.9329 85.8436 81.2221 84.1007 82.113 83.6675C83.0039 83.2342 85.2969 82.8204 85.5452 84.3782Z" fill="#FCBF81"/>
<path d="M86.3682 96.3642C86.6205 96.8143 87.0024 97.1782 87.4644 97.4083C87.9263 97.6383 88.4468 97.7241 88.9581 97.6543C90.7546 97.406 93.3883 92.9904 93.3883 92.9904C93.3883 92.9904 92.8188 89.6263 91.2365 89.3391C91.2365 89.3391 89.2113 91.9242 88.8754 92.0167C88.5395 92.1092 87.6388 90.2008 87.6388 90.2008" fill="#E55600"/>
<path d="M85.3451 89.5972C84.9459 89.3245 84.3715 89.1103 84.5126 88.5553C84.6198 88.0685 85.0969 87.7472 85.1115 87.2506C85.1162 87.0117 85.0734 86.7742 84.9857 86.5519C84.8979 86.3296 84.7669 86.1269 84.6003 85.9556C84.3909 85.7414 84.1134 85.6197 84.2741 85.2789C84.3947 85.058 84.5753 84.8758 84.795 84.7531L85.8174 84.8164C86.0082 84.2816 85.9956 83.6952 85.7819 83.1691C85.5682 82.643 85.1684 82.2139 84.6587 81.9636C83.998 81.6172 83.2481 81.4783 82.5071 81.5652C81.7662 81.652 81.0687 81.9606 80.506 82.4504C80.2387 82.7461 80.0083 83.073 79.8195 83.4241C79.6006 83.8645 79.298 84.258 78.9286 84.5827C78.7254 84.7031 78.5517 84.8675 78.4203 85.0638C78.2889 85.2601 78.2031 85.4833 78.1692 85.7171C78.139 86.1719 78.2605 86.624 78.5148 87.0023C78.7728 87.4892 78.359 87.8299 78.028 88.1805C77.6596 88.5069 77.4197 88.954 77.3513 89.4414C77.3026 90.4978 78.325 90.9846 79.2061 91.1453C80.0873 91.306 80.8565 91.4228 81.6841 91.564C82.7357 91.7441 83.7629 92.1238 84.8388 91.8317C85.1211 91.7523 85.3788 91.6033 85.5886 91.3985C85.7011 91.2849 85.7886 91.149 85.8453 90.9996C85.9021 90.8501 85.927 90.6905 85.9182 90.5308C85.9095 90.3712 85.8675 90.2152 85.7947 90.0728C85.722 89.9304 85.6203 89.8049 85.4961 89.7043C85.4478 89.6658 85.3974 89.63 85.3451 89.5972Z" fill="#700FBC"/>
<path d="M69.0368 80.3569L69.0806 80.3326C69.1199 80.3096 69.1543 80.279 69.1818 80.2427C69.2094 80.2064 69.2295 80.165 69.241 80.121C69.2525 80.0769 69.2553 80.031 69.249 79.9858C69.2428 79.9407 69.2278 79.8972 69.2048 79.8579C69.1817 79.8186 69.1512 79.7842 69.1149 79.7567C69.0786 79.7292 69.0372 79.7091 68.9931 79.6975C68.9491 79.686 68.9031 79.6833 68.858 79.6895C68.8129 79.6957 68.7694 79.7108 68.7301 79.7338L68.6473 79.7825C68.6478 79.7217 68.6324 79.6618 68.6027 79.6087C68.573 79.5557 68.53 79.5112 68.478 79.4798C68.4259 79.4484 68.3666 79.431 68.3058 79.4295C68.245 79.4279 68.1849 79.4422 68.1313 79.4709C67.7321 79.6656 67.3377 79.8652 66.9483 80.0746L67.0992 79.8896C67.328 79.6023 67.0408 79.1204 66.6805 79.3443C66.2067 79.6397 65.7409 79.948 65.2833 80.2693C65.2428 80.2981 65.2086 80.3349 65.1829 80.3774C65.1571 80.4199 65.1403 80.4672 65.1335 80.5165C65.1266 80.5657 65.1299 80.6158 65.1431 80.6637C65.1563 80.7116 65.1792 80.7563 65.2103 80.7951L65.1372 80.8486C65.0636 80.9033 65.0126 80.9829 64.9937 81.0727C64.9749 81.1624 64.9896 81.2559 65.035 81.3355C65.0181 81.3876 65.0124 81.4428 65.0182 81.4973C65.0241 81.5519 65.0414 81.6045 65.0691 81.6519C64.8549 81.8126 64.9766 82.1388 65.2103 82.2166L65.2395 82.2507L64.8305 82.3919C64.4118 82.538 64.592 83.2049 65.0155 83.0589L67.1138 82.3238C67.6613 82.188 68.1644 81.9129 68.5743 81.5253C68.6217 81.4756 68.6527 81.4125 68.6632 81.3446C68.6736 81.2767 68.663 81.2073 68.6327 81.1456C68.7846 81.0667 68.9268 80.9703 69.0563 80.8584C69.0944 80.8279 69.1249 80.7889 69.1453 80.7445C69.1656 80.7001 69.1752 80.6515 69.1733 80.6027C69.1714 80.5539 69.158 80.5063 69.1343 80.4636C69.1106 80.4209 69.0772 80.3843 69.0368 80.3569Z" fill="#FCBF81"/>
<path d="M60.458 81.6616C60.458 81.6616 64.231 80.128 65.3556 79.797C65.3556 79.797 66.5191 80.6149 66.1978 82.7618C66.1978 82.7618 62.79 86.2378 60.6868 87.2845" fill="#E55600"/>
<path d="M57.5224 74.1206C57.5721 74.0534 57.5969 73.9709 57.5924 73.8874C57.588 73.8039 57.5546 73.7246 57.4981 73.663C57.3502 73.4496 57.1464 73.2812 56.909 73.1762C56.8403 73.1549 56.768 73.1479 56.6964 73.1557C56.6249 73.1635 56.5558 73.1859 56.4932 73.2215C56.4307 73.2571 56.3762 73.3051 56.333 73.3626C56.2898 73.4201 56.2588 73.4859 56.2421 73.5559C56.2249 73.6939 56.2407 73.834 56.2881 73.9648C56.3355 74.0956 56.4132 74.2132 56.5149 74.3082C56.6165 74.4032 56.7391 74.4728 56.8728 74.5112C57.0065 74.5497 57.1473 74.556 57.2839 74.5296C57.3709 74.5035 57.4446 74.445 57.4899 74.3662C57.5352 74.2875 57.5486 74.1943 57.5273 74.106L57.5224 74.1206Z" fill="#FF666D"/>
<path d="M58.0681 105.604C60.8402 105.604 63.0874 104.769 63.0874 103.74C63.0874 102.71 60.8402 101.875 58.0681 101.875C55.296 101.875 53.0488 102.71 53.0488 103.74C53.0488 104.769 55.296 105.604 58.0681 105.604Z" fill="#FF666D"/>
<path d="M57.2256 95.4002L57.4203 102.902H58.9149V95.4002" fill="#FF666D"/>
<path d="M51.2038 91.1744C51.0493 90.8079 50.9223 90.4304 50.8241 90.0449C50.0792 87.1239 49.5875 76.1165 54.5289 76.5644C59.9523 77.0513 58.1218 90.6389 63.6182 90.2202C69.1146 89.8015 71.3686 91.2328 69.1194 93.3652C64.6551 97.625 53.9447 97.7272 51.2038 91.1744Z" fill="#021E6A"/>
<path d="M58.3263 70.1626C58.3263 70.1626 60.1325 73.9696 58.9446 75.0894C58.1023 75.8829 56.4374 75.8293 55.5708 74.3737C54.7042 72.9181 56.6759 69.4907 58.3263 70.1626Z" fill="#FCBF81"/>
<path d="M56.5489 73.8041C57.5136 72.9249 58.1376 71.7337 58.3112 70.44C58.5059 68.4051 54.0124 69.1256 53.2773 71.0973C52.5422 73.069 53.6278 75.9316 56.6511 75.5275L56.5489 73.8041Z" fill="#F5EF4B"/>
<path d="M54.4608 74.0427C54.1492 74.3056 46.2722 82.353 50.3567 85.05C53.7646 87.2992 55.0693 75.5129 55.0645 74.6123" fill="#F5EF4B"/>
<path d="M158.551 88.8669C158.524 88.7557 158.474 88.6512 158.405 88.5602C158.276 88.4048 158.123 88.2716 157.952 88.1659C155.659 86.6128 152.485 86.1844 150.055 87.679C149.5 88.0247 148.678 88.8134 149.004 89.5533C149.194 89.9818 149.768 90.2349 150.167 90.4102C151.501 90.9382 152.894 91.3012 154.315 91.491C154.831 91.5786 155.347 91.6613 155.868 91.7149C156.226 91.7487 156.587 91.692 156.917 91.5499C157.247 91.4078 157.536 91.185 157.757 90.9019C158.127 90.4686 158.716 89.5387 158.551 88.8669Z" fill="#010E2F"/>
<path d="M148.951 89.2369C150.574 90.4896 152.618 91.0685 154.657 90.8532C158.269 90.5757 158.552 88.8669 158.552 88.8669C158.552 88.8669 157.617 100.848 157.12 101.038C156.624 101.228 154.779 102.133 153.888 102.201C152.997 102.27 150.178 101.14 150.11 100.829C150.042 100.517 148.951 89.2369 148.951 89.2369Z" fill="#3563DF"/>
<path d="M155.163 85.902C155.104 86.0308 155.069 86.1695 155.061 86.311L155.163 85.902Z" fill="#FF666D"/>
<path d="M149.608 71.779C149.496 71.5502 149.155 71.7498 149.267 71.9786C151.741 77.0319 152.222 82.7182 152.675 88.2389C152.675 88.4921 153.089 88.4921 153.07 88.2389C152.617 82.6354 152.115 76.9005 149.608 71.779Z" fill="#007F68"/>
<path d="M149.296 71.8276C149.296 71.8276 149.987 74.4468 149.296 75.7613C148.605 77.0757 147.991 77.3338 148.843 78.9695C149.695 80.6053 151.974 80.8146 152.125 82.0658C152.275 83.317 151.01 74.0525 149.296 71.8276Z" fill="#007F68"/>
<path d="M157.207 76.5596C155.307 80.6027 154.239 84.9868 154.067 89.4511C154.067 89.7627 154.554 89.7627 154.554 89.4511C154.724 85.0675 155.773 80.7628 157.641 76.7933C157.753 76.5256 157.339 76.2822 157.207 76.5596Z" fill="#007F68"/>
<path d="M157.544 77.8399C157.544 77.577 157.485 77.061 157.514 76.5985L157.237 76.7738C156.297 79.0862 154.895 84.5242 154.472 86.1892C155.041 84.9429 157.393 84.7725 158.069 82.9809C158.372 82.2254 158.386 81.3849 158.108 80.6198C157.771 79.7297 157.581 78.791 157.544 77.8399Z" fill="#007F68"/>
</svg>
