<svg width="123" height="140" viewBox="0 0 123 140" fill="none" xmlns="http://www.w3.org/2000/svg">
<path d="M106.923 106.758C107.246 106.954 107.514 107.229 107.702 107.557C107.889 107.885 107.99 108.256 107.994 108.634C107.998 109.012 107.906 109.385 107.725 109.717C107.545 110.049 107.283 110.33 106.963 110.533L55.9936 139.139C54.9691 139.713 53.8126 140.01 52.6384 140C51.4641 139.99 50.3128 139.674 49.2979 139.083L1.21384 111.193C0.844692 110.979 0.538235 110.672 0.325191 110.303C0.112146 109.933 0 109.514 0 109.087C0 108.661 0.112146 108.242 0.325191 107.872C0.538235 107.502 0.844692 107.195 1.21384 106.982L52.3664 77.5164C52.8959 77.2125 53.4958 77.0526 54.1063 77.0526C54.7169 77.0526 55.3168 77.2125 55.8463 77.5164L106.923 106.758Z" fill="#E8C300"/>
<path style="mix-blend-mode:multiply" d="M47.7232 106.819C40.2401 111.183 34.8906 114.114 23.3789 120.688C32.0914 125.981 38.843 130.848 39.8235 131.427L65.6817 116.222C63.6699 115.206 57.025 111.427 47.7232 106.819Z" fill="url(#paint0_linear)"/>
<path d="M119.029 97.7913V41.0354C119.035 40.6253 118.932 40.2209 118.73 39.8638C118.528 39.5067 118.235 39.2097 117.88 39.0033C113.166 36.2651 59.7528 6.01254 49.3841 0.139841C49.173 0.020341 48.9278 -0.0244096 48.6881 0.0128359C48.675 0.00773508 48.6605 0.00773508 48.6475 0.0128359C47.8198 0.363668 47.0139 0.764034 46.2344 1.21176C46.6778 1.52473 47.2177 1.67052 47.7584 1.62326V6.15987L47.8905 59.9185C47.8905 60.9955 92.5962 85.6344 93.5259 86.1729L116.062 99.0004C115.33 99.5592 114.929 100.448 115.376 100.524C115.975 100.636 117.276 99.8945 117.987 99.4525C118.164 99.3765 118.327 99.2718 118.47 99.1426C118.657 98.9731 118.805 98.7638 118.902 98.5301C118.998 98.2963 119.042 98.0439 119.029 97.7913Z" fill="#021E6A"/>
<path d="M119.029 97.7913V41.0354C119.035 40.6253 118.932 40.2209 118.73 39.8638C118.528 39.5067 118.235 39.2097 117.88 39.0033C113.166 36.2651 59.7528 6.01254 49.3841 0.139841C49.173 0.020341 48.9278 -0.0244096 48.6881 0.0128359C48.675 0.00773508 48.6605 0.00773508 48.6475 0.0128359C47.8198 0.363668 47.0139 0.764034 46.2344 1.21176C46.6778 1.52473 47.2177 1.67052 47.7584 1.62326V6.15987L47.8905 59.9185C47.8905 60.9955 92.5962 85.6344 93.5259 86.1729L116.062 99.0004C115.33 99.5592 114.929 100.448 115.376 100.524C115.975 100.636 117.276 99.8945 117.987 99.4525C118.164 99.3765 118.327 99.2718 118.47 99.1426C118.657 98.9731 118.805 98.7638 118.902 98.5301C118.998 98.2963 119.042 98.0439 119.029 97.7913Z" fill="#3D53A3"/>
<path d="M45.8076 2.01947C45.8206 1.83329 45.8805 1.65342 45.9816 1.49656C46.0827 1.3397 46.2219 1.21094 46.3861 1.12225C46.5503 1.03355 46.7343 0.987798 46.9209 0.989229C47.1075 0.990661 47.2908 1.03923 47.4536 1.13044C57.8274 6.99806 111.225 37.2557 115.955 39.9939C116.309 40.2003 116.603 40.4973 116.804 40.8544C117.006 41.2115 117.109 41.6159 117.103 42.026V98.7515C117.189 99.9098 115.879 100.982 114.812 100.372L91.5751 87.1636C90.6404 86.6301 45.9397 61.9861 45.9397 60.9091L45.8076 7.15047V2.01947Z" fill="#021E6A"/>
<path d="M52.8232 37.8859V59.0703L79.2961 74.3516V53.1468L52.8232 37.8859Z" fill="white"/>
<path d="M80.6885 54.1221V75.3065L107.156 90.5877V69.3881L80.6885 54.1221Z" fill="white"/>
<path d="M52.8232 14.6285V35.8129L79.2961 51.0942V29.8894L52.8232 14.6285Z" fill="white"/>
<path d="M80.6885 30.4381V51.6225L107.156 66.9037V45.7041L80.6885 30.4381Z" fill="white"/>
<path d="M81.1829 27.2196C81.8045 27.0572 82.086 26.074 81.8116 25.0234C81.5371 23.9728 80.8107 23.2528 80.1891 23.4152C79.5674 23.5776 79.2859 24.5609 79.5604 25.6115C79.8348 26.662 80.5612 27.382 81.1829 27.2196Z" fill="#34323D"/>
<path d="M67.5746 35.8677C69.1712 35.2995 69.789 32.9382 68.9546 30.5936C68.1202 28.249 66.1495 26.8089 64.5529 27.3771C62.9564 27.9453 62.3385 30.3066 63.173 32.6512C64.0074 34.9959 65.9781 36.4359 67.5746 35.8677Z" fill="#8A9FD7"/>
<path d="M58.6348 39.1658C58.6348 39.1658 60.3671 33.2626 64.7818 34.5479C69.1965 35.8332 71.9804 39.496 71.9804 46.969" fill="#8A9FD7"/>
<path d="M95.0756 51.6423C96.6722 51.0741 97.29 48.7128 96.4556 46.3682C95.6212 44.0236 93.6505 42.5835 92.0539 43.1517C90.4573 43.7199 89.8395 46.0812 90.6739 48.4258C91.5084 50.7704 93.479 52.2105 95.0756 51.6423Z" fill="#8A9FD7"/>
<path d="M86.1445 54.935C86.1445 54.935 87.8769 49.0318 92.2916 50.3171C96.7063 51.6024 99.4902 55.2601 99.4902 62.7433" fill="#8A9FD7"/>
<path d="M66.5678 58.421C68.1643 57.8528 68.7822 55.4915 67.9478 53.1469C67.1134 50.8023 65.1427 49.3622 63.5461 49.9304C61.9495 50.4986 61.3317 52.8599 62.1661 55.2045C63.0005 57.5491 64.9712 58.9892 66.5678 58.421Z" fill="#8A9FD7"/>
<path d="M57.6348 61.717C57.6348 61.717 59.3671 55.8138 63.7818 57.0991C68.1965 58.3844 70.9804 62.0472 70.9804 69.5202" fill="#8A9FD7"/>
<path d="M93.2358 74.0799C94.8323 73.5117 95.4502 71.1504 94.6157 68.8058C93.7813 66.4612 91.8106 65.0211 90.2141 65.5893C88.6175 66.1575 87.9997 68.5188 88.8341 70.8634C89.6685 73.208 91.6392 74.6481 93.2358 74.0799Z" fill="#8A9FD7"/>
<path d="M84.3008 77.379C84.3008 77.379 86.0331 71.4759 90.4478 72.7611C94.8625 74.0464 97.6465 77.7093 97.6465 85.1822" fill="#8A9FD7"/>
<path d="M53.8903 89.6276C51.7008 88.1035 49.1251 87.2602 46.3412 87.8749C43.3743 88.5252 40.8088 90.415 37.7861 90.8468C37.3086 90.9179 35.4035 90.796 35.1088 91.0703C26.7011 99.0259 50.2021 98.1826 50.2021 98.1826C52.4831 96.3131 54.632 94.4741 56.8927 92.5944C56.212 91.05 55.0639 90.4505 53.8903 89.6276Z" fill="#F8997C"/>
<path d="M42.8258 101.165L41.9927 125.169C41.9622 126.078 43.3745 126.078 43.405 125.169L44.2381 101.165C44.2737 100.25 42.8614 100.256 42.8258 101.165Z" fill="#F8997C"/>
<path d="M60.4482 114.007C56.1672 109.818 52.0777 105.447 48.1795 100.895C47.5851 100.204 46.5894 101.205 47.1634 101.911C51.0583 106.46 55.1478 110.83 59.4321 115.023C60.0976 115.643 61.1035 114.642 60.4482 114.007Z" fill="#F8997C"/>
<path d="M37.9232 98.9496C34.6007 105.222 31.4713 111.589 28.535 118.051C28.159 118.874 29.3783 119.575 29.7542 118.767C32.6906 112.305 35.82 105.938 39.1424 99.6659C39.5945 98.853 38.3499 98.1367 37.9232 98.9496Z" fill="#F8997C"/>
<path d="M59.0208 83.9529C59.0208 83.9529 62.0689 84.5777 62.7649 85.2636C63.4609 85.9494 64.5734 88.8197 64.2636 89.6884C63.9537 90.5571 63.0799 89.1804 62.7039 88.6317C62.2597 88.0485 61.7813 87.4921 61.2713 86.9654C60.267 87.1201 59.2393 86.9844 58.3096 86.5743" fill="#FCBF81"/>
<path d="M60.0419 109.948C60.4839 109.496 60.7684 108.998 60.616 108.505C60.3467 107.621 59.1478 107.266 58.3299 107.312C57.512 107.357 56.6585 107.774 55.8304 108.023C54.9622 108.334 54.0356 108.449 53.1176 108.358C52.9692 108.338 52.8334 108.264 52.7366 108.15C52.4818 108.089 52.247 107.964 52.0548 107.786C51.8625 107.608 51.7195 107.383 51.6393 107.134L48.9214 106.158C48.9214 106.158 48.2305 111.909 48.2305 112.316C48.4337 115.414 53.0617 113.647 53.0617 113.647C53.0617 113.647 53.2243 112.244 53.27 112.056C53.3157 111.868 55.0887 112.417 55.8101 112.305C56.1489 112.211 56.4698 112.062 56.7601 111.863C57.3088 111.564 57.8422 111.239 58.3756 110.913C58.909 110.588 59.4882 110.278 60.0419 109.948Z" fill="#E55600"/>
<path d="M49.9026 88.7436C48.8866 88.8452 47.8705 88.9773 46.8545 89.1195C47.2778 95.6425 47.7469 102.16 48.2617 108.673C50.9034 109.755 51.9753 109.252 53.6162 107.576C53.9261 101.358 54.4748 94.8449 54.4545 88.5658C52.9304 88.6318 51.4165 88.6979 49.9026 88.7436Z" fill="#34323D"/>
<path d="M38.9084 86.9554C38.9084 86.9554 38.4715 94.093 42.0581 95.6882C45.6447 97.2834 53.0059 96.4858 56.623 94.3623C58.495 93.2224 60.4595 92.2419 62.4957 91.431C62.4957 91.431 63.4254 88.3067 61.1698 86.9554C58.9142 85.604 53.9254 83.9377 49.4853 86.9554" fill="#34323D"/>
<path d="M54.6469 67.3509C54.7594 67.0823 54.8919 66.8224 55.0432 66.5736C55.0474 66.5894 55.0562 66.6036 55.0686 66.6143C55.0726 66.6346 55.0827 66.6532 55.0977 66.6676C55.1126 66.682 55.1315 66.6915 55.152 66.6948C55.1724 66.6981 55.1934 66.6951 55.2121 66.6861C55.2308 66.6772 55.2463 66.6627 55.2565 66.6447L55.5461 66.2078C55.5362 66.265 55.5362 66.3234 55.5461 66.3806C55.5694 66.4874 55.6318 66.5816 55.7212 66.6446C55.8106 66.7077 55.9203 66.7349 56.0287 66.7209C56.0923 66.7164 56.1541 66.6979 56.2096 66.6666C56.2652 66.6354 56.3132 66.5922 56.3501 66.5403C56.387 66.4883 56.4119 66.4288 56.4231 66.3661C56.4343 66.3033 56.4315 66.2389 56.4148 66.1774L56.5469 66.025C56.5401 66.0687 56.5401 66.1133 56.5469 66.157C56.5669 66.2182 56.6021 66.2733 56.6491 66.3172C56.6961 66.3611 56.7535 66.3923 56.8159 66.408C56.8783 66.4238 56.9437 66.4234 57.0059 66.4071C57.0681 66.3907 57.1252 66.3589 57.1718 66.3145C57.2226 66.2739 57.2683 66.2231 57.314 66.1774C57.3541 66.1947 57.3973 66.2036 57.441 66.2036C57.4847 66.2036 57.5279 66.1947 57.568 66.1774C57.9408 66.0505 58.3055 65.9012 58.6603 65.7303C58.6354 65.7197 58.6136 65.7032 58.5965 65.6823C58.5794 65.6614 58.5676 65.6367 58.5621 65.6102C58.5566 65.5838 58.5576 65.5564 58.5649 65.5305C58.5723 65.5045 58.5858 65.4807 58.6044 65.461C59.0231 65.1223 59.4663 64.8149 59.9303 64.5415C59.9467 64.5277 59.9657 64.5173 59.9862 64.5111L60.0116 64.4653C60.1204 64.1131 60.095 63.7331 59.9405 63.3985C60.0525 63.2621 60.1322 63.1021 60.1735 62.9306C60.2149 62.759 60.2168 62.5803 60.1792 62.4079C60.1419 62.4053 60.1064 62.3911 60.0776 62.3672C60.0114 62.3106 59.9548 62.2437 59.91 62.1691C59.8282 62.0673 59.7646 61.9521 59.722 61.8287C59.7116 61.7977 59.7114 61.7642 59.7214 61.7331C59.7315 61.702 59.7513 61.675 59.7779 61.656C59.6052 61.4274 59.402 61.2089 59.2242 61.0057C59.6595 60.2641 59.8662 59.4106 59.8185 58.552C59.8146 58.4718 59.785 58.3949 59.7342 58.3327C59.6833 58.2706 59.6139 58.2263 59.5361 58.2064C59.4583 58.1865 59.3762 58.1921 59.3018 58.2223C59.2273 58.2525 59.1645 58.3057 59.1226 58.3742C58.9517 58.644 58.7973 58.9239 58.6603 59.2124C58.6153 59.2416 58.5786 59.2819 58.5536 59.3293C57.8192 60.8372 57.0035 62.3041 56.11 63.7236C55.9576 63.9624 54.0779 66.5228 54.3116 66.5838C54.2964 66.7006 52.7723 70.211 54.6469 67.3509ZM55.7442 66.2688C55.7442 66.2688 55.7442 66.2688 55.7442 66.2434C55.7538 66.2542 55.7655 66.2629 55.7786 66.2688C55.7918 66.2747 55.806 66.2778 55.8204 66.2778C55.8349 66.2778 55.8491 66.2747 55.8622 66.2688C55.8754 66.2629 55.8871 66.2542 55.8966 66.2434C55.9423 66.2763 55.9946 66.2988 56.0499 66.3093C56.1052 66.3198 56.1621 66.3181 56.2167 66.3044C56.2127 66.3717 56.182 66.4347 56.1315 66.4795C56.081 66.5243 56.0148 66.5472 55.9474 66.5431C55.8801 66.5391 55.8171 66.5084 55.7723 66.458C55.7275 66.4075 55.7046 66.3412 55.7087 66.2739L55.7442 66.2688Z" fill="#FCBF81"/>
<path d="M54.8355 66.5329C55.243 66.2211 55.5877 65.835 55.8515 65.3949C55.9013 65.3026 55.9691 65.2213 56.051 65.1557C56.1328 65.0902 56.227 65.0417 56.328 65.0133C56.4289 64.9848 56.5346 64.977 56.6386 64.9902C56.7426 65.0034 56.843 65.0374 56.9336 65.0901C56.9629 64.8848 56.9782 64.6777 56.9793 64.4704C56.9793 63.4137 58.6405 63.3984 58.6202 64.4704C58.6577 65.2997 58.4357 66.1201 57.9852 66.8174C57.488 67.4464 56.8824 67.9815 56.197 68.3973C56.0761 68.4651 55.9403 68.5021 55.8018 68.5049C55.6632 68.5077 55.5261 68.4764 55.4025 68.4136C55.279 68.3508 55.1728 68.2585 55.0934 68.1449C55.014 68.0313 54.9638 67.8999 54.9472 67.7623L54.8761 67.7064C54.7961 67.6322 54.7316 67.5429 54.6862 67.4437C54.6409 67.3444 54.6156 67.2372 54.6118 67.1281C54.608 67.0191 54.6259 66.9103 54.6642 66.8082C54.7026 66.706 54.7608 66.6125 54.8355 66.5329Z" fill="#FCBF81"/>
<path d="M45.752 70.4753C45.752 70.4753 50.5426 70.7039 51.7923 69.5557C53.042 68.4076 54.8404 64.7956 54.8404 64.7956C54.8404 64.7956 58.1425 66.9191 58.3051 68.1384C58.4677 69.3576 54.8557 75.2506 53.2503 75.6621" fill="#BA3E00"/>
<path d="M68.3281 114.419C68.7701 113.967 69.0546 113.469 68.9022 112.976C68.633 112.092 67.434 111.737 66.6161 111.782C65.7982 111.828 64.9447 112.245 64.1167 112.494C63.2485 112.805 62.3218 112.92 61.4038 112.829C61.2554 112.809 61.1196 112.735 61.0228 112.621C60.768 112.56 60.5332 112.434 60.341 112.256C60.1488 112.078 60.0057 111.854 59.9255 111.605L57.2025 110.634C57.2025 110.634 56.5065 116.38 56.5319 116.781C56.7351 119.88 61.3632 118.112 61.3632 118.112C61.3632 118.112 61.5258 116.71 61.5715 116.522C61.6172 116.334 63.3902 116.883 64.1116 116.771C64.4503 116.677 64.7713 116.527 65.0616 116.329C65.6102 116.029 66.1437 115.704 66.6771 115.379C67.2105 115.054 67.7795 114.749 68.3281 114.419Z" fill="#E55600"/>
<path d="M57.8831 87.1283C56.9483 86.6863 55.9678 86.732 54.835 86.7371C54.9924 89.0333 54.9061 89.8614 55.0483 92.1577L55.089 92.7673C55.5259 99.5646 56.0237 106.357 56.5521 113.144C59.1938 114.226 60.2657 113.723 61.9066 112.047C62.2724 104.812 62.9531 97.1718 62.6889 89.9732C61.1496 88.4644 59.7932 88.0376 57.8831 87.1283Z" fill="#34323D"/>
<path d="M38.8428 85.4771C38.8428 85.6549 38.8784 86.2442 38.9038 86.9554C40.3872 88.9113 42.2059 90.0594 45.0559 89.9731C47.3623 89.907 49.2877 88.896 51.0962 87.6514C50.8727 83.4704 50.197 76.3327 49.1403 71.3541C49.0489 70.9325 47.9566 70.6531 47.6163 70.4753C46.8644 70.0638 47.3064 69.3576 46.5698 68.9157C45.5017 68.2948 44.3896 67.7531 43.2422 67.2951H43.2118C41.3727 67.2697 38.2078 68.682 38.0198 71.1408C37.7302 74.9255 38.1468 77.2014 38.4415 80.976C38.5786 82.5001 38.7158 83.9987 38.8428 85.4771Z" fill="#E55600"/>
<path d="M45.2387 60.137C45.4825 60.1979 47.5197 64.892 46.7221 67.7573C45.9245 70.6225 41.0831 67.676 39.8638 65.5067C38.6446 63.3375 40.6614 58.9482 45.2387 60.137Z" fill="#FCBF81"/>
<path d="M45.1829 60.7923C45.1829 60.7923 45.1829 62.3417 43.8315 62.8243C42.4802 63.307 41.3524 63.6626 41.4235 64.2874C41.4947 64.9123 43.8722 64.2011 43.8824 65.6337C43.8838 66.6002 43.7539 67.5624 43.4963 68.4938C43.3489 69.1949 39.2797 67.0409 37.9385 63.3679C36.5974 59.6949 39.9706 58.7195 40.1179 58.6941C40.2652 58.6687 40.5853 57.6781 42.2313 57.3123C43.8773 56.9466 44.3396 57.5917 44.3396 57.5917C44.7133 57.3663 45.1507 57.2696 45.5847 57.3164C46.0187 57.3632 46.4254 57.5509 46.7425 57.8508C48.2666 59.0548 47.8754 61.2546 46.1583 62.1487L45.1829 60.7923Z" fill="#34323D"/>
<path d="M46.0156 75.342C46.0156 75.342 51.0501 84.5371 53.834 85.3296C55.8313 85.8515 57.8717 86.1915 59.9303 86.3457C59.9303 86.3457 60.2757 83.8056 59.9303 82.6981C59.9303 82.6981 55.4749 80.6914 55.0381 79.4874C54.6012 78.2834 50.8469 69.835 46.5846 68.9409" fill="#E55600"/>
<path d="M50.6486 82.4901C50.3387 82.0938 46.8486 78.1414 46.8486 78.1414L51.0449 86.7574L50.6486 82.4901Z" fill="#34323D"/>
<path d="M56.5726 92.4267C55.265 94.253 53.4115 95.6173 51.2791 96.3232C48.2869 97.2326 43.9331 96.8059 42.3633 93.6764C39.5032 87.9815 42.1906 80.8591 39.1679 75.3217C38.8194 74.6218 38.3269 74.0035 37.7229 73.5071C37.1188 73.0107 36.4167 72.6475 35.6626 72.4412C33.7016 72.0145 32.3604 73.4827 31.6492 75.215C30.3741 78.319 30.4198 82.1901 30.4859 85.4923C30.4886 88.1647 30.6821 90.8335 31.065 93.4783C31.065 93.4783 32.8939 104.573 47.1692 101.607C49.64 101.158 52.0129 100.28 54.1799 99.0107C55.2932 98.3632 56.2656 97.4996 57.04 96.4706C57.8833 95.2157 57.3245 93.7069 56.5726 92.4267Z" fill="#021E6A"/>
<path d="M9.14952 96.4451C7.16955 98.9829 6.20277 102.166 6.4367 105.376C6.79739 110.588 9.73374 112.102 9.73374 112.102L13.2289 112.295C13.2289 112.295 17.3845 110.939 16.8409 104.167C16.3329 97.8015 14.2602 96.3079 14.2602 96.3079" fill="#021E6A"/>
<path d="M11.7249 97.3546C13.1446 97.3546 14.2955 96.9475 14.2955 96.4452C14.2955 95.943 13.1446 95.5359 11.7249 95.5359C10.3052 95.5359 9.1543 95.943 9.1543 96.4452C9.1543 96.9475 10.3052 97.3546 11.7249 97.3546Z" fill="#003B94"/>
<path d="M11.7249 112.458C13.1446 112.458 14.2955 112.051 14.2955 111.549C14.2955 111.046 13.1446 110.639 11.7249 110.639C10.3052 110.639 9.1543 111.046 9.1543 111.549C9.1543 112.051 10.3052 112.458 11.7249 112.458Z" fill="#021E6A"/>
<path d="M10.6678 96.7195L7.5536 78.8575C7.48755 78.4664 6.89317 78.634 6.95921 79.0201L10.0734 96.8821C10.1293 97.2732 10.7338 97.1107 10.6678 96.7195Z" fill="#C3EA75"/>
<path d="M11.2314 96.7804C11.3254 96.7621 11.422 96.7621 11.5159 96.7804C11.6393 96.8118 11.7507 96.879 11.836 96.9735C12.0832 91.9847 12.1273 86.9926 11.9681 81.9971C11.9681 81.6008 11.3432 81.6008 11.3534 81.9971C11.5126 86.9283 11.4719 91.856 11.2314 96.7804Z" fill="#C3EA75"/>
<path d="M18.2328 79.4469C15.9124 85.0518 13.9043 90.7808 12.2178 96.6078C12.2057 96.6833 12.2218 96.7606 12.2632 96.8248C12.3046 96.8891 12.3683 96.9358 12.442 96.956C12.5157 96.9761 12.5943 96.9683 12.6626 96.9341C12.731 96.8998 12.7842 96.8415 12.8122 96.7704C14.4987 90.9434 16.5068 85.2143 18.8271 79.6095C18.9745 79.2488 18.3801 79.0862 18.2328 79.4469Z" fill="#C3EA75"/>
<path d="M8.21907 86.2492C8.21907 86.2492 7.88378 86.2086 6.4156 84.6642C4.94743 83.1198 6.80169 81.9564 5.9533 80.219C5.10491 78.4816 6.30384 76.1955 6.57309 74.4581C6.73828 75.6761 7.17964 76.8404 7.86346 77.8618C8.97094 79.4468 9.59072 80.8794 9.47388 82.8912C9.39185 84.1606 9.17385 85.4175 8.82361 86.6404" fill="#C3EA75"/>
<path d="M11.3693 88.9825C11.3693 88.9825 11.0543 88.8606 10.0027 87.0012C8.95108 85.1419 11.0187 84.4611 10.6326 82.5764C10.2465 80.6916 11.9484 78.7612 12.6342 77.1355C12.4989 78.358 12.6448 79.5952 13.061 80.7526C13.7519 82.5611 14.0008 84.0954 13.4013 86.0208C13.019 87.2318 12.5081 88.3985 11.8773 89.5007" fill="#C3EA75"/>
<path d="M15.7585 85.7413C15.7585 85.7413 15.4741 85.5584 14.8289 83.5263C14.1837 81.4942 16.3529 81.2605 16.3529 79.3199C16.3529 77.3793 18.4206 75.8552 19.401 74.4073C19.0176 75.5758 18.9064 76.8165 19.0759 78.0346C19.3807 79.9448 19.3147 81.4993 18.3291 83.2621C17.7001 84.3684 16.9541 85.4039 16.104 86.3509" fill="#C3EA75"/>
<path d="M122.793 29.9862V45.6078C122.791 45.8451 122.728 46.0779 122.609 46.2832C122.49 46.4886 122.32 46.6593 122.115 46.7788C121.909 46.8982 121.677 46.9622 121.439 46.9645C121.202 46.9667 120.968 46.9071 120.761 46.7915L104.698 37.5303C104.489 37.4107 104.316 37.2383 104.196 37.0305C104.075 36.8227 104.012 36.5868 104.012 36.3466V20.7149C104.013 20.4775 104.077 20.2448 104.196 20.0394C104.315 19.8341 104.485 19.6633 104.69 19.5439C104.895 19.4244 105.128 19.3604 105.365 19.3582C105.603 19.356 105.837 19.4156 106.044 19.5312L122.087 28.7924C122.301 28.9102 122.479 29.0831 122.603 29.293C122.727 29.503 122.793 29.7423 122.793 29.9862Z" fill="#A6B4F5"/>
<path d="M104.012 33.4914V40.6697L108.873 37.8858L104.012 33.4914Z" fill="#A6B4F5"/>
<path d="M49.0791 31.1904V46.8069C49.0774 47.0442 49.0139 47.277 48.8949 47.4823C48.7759 47.6876 48.6055 47.8584 48.4004 47.9779C48.1954 48.0973 47.9627 48.1613 47.7254 48.1635C47.4881 48.1658 47.2543 48.1062 47.047 47.9906L30.9886 38.7345C30.7803 38.6148 30.6073 38.4424 30.4869 38.2346C30.3665 38.0268 30.303 37.7909 30.3027 37.5508V21.9292C30.3044 21.6919 30.3679 21.4591 30.4869 21.2538C30.6059 21.0484 30.7764 20.8777 30.9814 20.7582C31.1865 20.6388 31.4191 20.5748 31.6564 20.5725C31.8937 20.5703 32.1275 20.6299 32.3348 20.7455L48.3781 30.0067C48.5891 30.1244 48.7652 30.2959 48.8884 30.5039C49.0116 30.7118 49.0774 30.9487 49.0791 31.1904Z" fill="#A6B4F5"/>
<path d="M45.2637 46.9744L52.1422 50.7642L48.703 42.7578" fill="#A6B4F5"/>
<path d="M107.222 28.152L119.114 34.8883C119.286 34.96 119.478 34.9663 119.654 34.9061C119.831 34.8458 119.979 34.7231 120.071 34.5612C120.162 34.3993 120.192 34.2093 120.153 34.0272C120.115 33.845 120.011 33.6833 119.861 33.5725L107.994 26.8362C107.82 26.7431 107.617 26.721 107.427 26.7747C107.237 26.8285 107.075 26.9537 106.976 27.1242C106.876 27.2947 106.847 27.497 106.894 27.6887C106.941 27.8804 107.06 28.0465 107.227 28.152H107.222Z" fill="#F2F2F2"/>
<path d="M106.922 32.1504L118.815 38.8817C118.989 38.9748 119.192 38.9969 119.382 38.9432C119.572 38.8894 119.733 38.7642 119.833 38.5937C119.932 38.4232 119.961 38.2209 119.915 38.0292C119.868 37.8375 119.748 37.6714 119.582 37.5659L107.669 30.8347C107.495 30.7415 107.291 30.7195 107.101 30.7732C106.912 30.8269 106.75 30.9522 106.651 31.1226C106.551 31.2931 106.522 31.4955 106.569 31.6872C106.615 31.8789 106.735 32.0449 106.902 32.1504H106.922Z" fill="#F2F2F2"/>
<path d="M32.9494 28.7006L45.9953 36.0821C46.1693 36.1752 46.3726 36.1973 46.5624 36.1436C46.7523 36.0899 46.914 35.9646 47.0133 35.7941C47.1127 35.6236 47.1421 35.4213 47.0953 35.2296C47.0485 35.0379 46.9292 34.8718 46.7624 34.7663L33.7165 27.3848C33.5425 27.2917 33.3392 27.2696 33.1493 27.3233C32.9595 27.377 32.7978 27.5023 32.6984 27.6728C32.5991 27.8432 32.5697 28.0456 32.6165 28.2373C32.6633 28.429 32.7826 28.5951 32.9494 28.7006Z" fill="#F2F2F2"/>
<path d="M32.6193 33.0799L45.6652 40.4665C45.8392 40.5597 46.0425 40.5817 46.2324 40.528C46.4222 40.4743 46.5839 40.349 46.6833 40.1786C46.7827 40.0081 46.812 39.8057 46.7652 39.614C46.7184 39.4223 46.5991 39.2563 46.4323 39.1508L33.3864 31.7642C33.2124 31.671 33.0091 31.649 32.8193 31.7027C32.6294 31.7564 32.4678 31.8817 32.3684 32.0521C32.269 32.2226 32.2396 32.425 32.2864 32.6167C32.3332 32.8084 32.4525 32.9744 32.6193 33.0799Z" fill="#F2F2F2"/>
<defs>
<linearGradient id="paint0_linear" x1="52.5443" y1="113.677" x2="33.3818" y2="125.123" gradientUnits="userSpaceOnUse">
<stop stop-color="#808080"/>
<stop offset="1" stop-color="white"/>
</linearGradient>
</defs>
</svg>
