<svg width="210" height="147" viewBox="0 0 210 147" fill="none" xmlns="http://www.w3.org/2000/svg">
<path d="M207.996 80.694C184.999 93.036 117.369 132.077 96.0418 144.401C94.069 145.548 91.8278 146.152 89.5459 146.152C87.264 146.152 85.0228 145.548 83.0499 144.401L1.96251 97.0486C-1.2631 95.1645 -0.231621 91.605 3.01784 89.7627L116.171 23.9865C116.753 23.6556 117.412 23.4817 118.081 23.4817C118.751 23.4817 119.41 23.6556 119.992 23.9865L208.074 74.0699C208.665 74.4016 209.155 74.8864 209.494 75.4732C209.833 76.06 210.008 76.7273 210 77.4049C209.992 78.0825 209.802 78.7455 209.449 79.3243C209.096 79.903 208.595 80.3761 207.996 80.694Z" fill="#866511"/>
<path d="M110.465 28.3389C110.465 28.3389 108.539 41.5037 116.826 41.5454C124.786 41.5871 122.735 28.1779 122.735 28.1779C122.735 28.1779 116.916 23.1695 110.465 28.3389Z" fill="url(#paint0_linear)"/>
<path d="M116.576 30.8668C119.958 30.8668 122.699 29.735 122.699 28.3388C122.699 26.9426 119.958 25.8108 116.576 25.8108C113.194 25.8108 110.453 26.9426 110.453 28.3388C110.453 29.735 113.194 30.8668 116.576 30.8668Z" fill="#112E7C"/>
<path opacity="0.7" d="M116.576 30.8668C119.958 30.8668 122.699 29.735 122.699 28.3388C122.699 26.9426 119.958 25.8108 116.576 25.8108C113.194 25.8108 110.453 26.9426 110.453 28.3388C110.453 29.735 113.194 30.8668 116.576 30.8668Z" fill="#1F1E00"/>
<path d="M106.935 9.12227C106.935 9.12227 102.666 8.09675 104.306 4.54321C104.306 4.54321 107.239 5.12156 106.935 9.12227Z" fill="#938F05"/>
<path d="M109.528 12.6998C109.528 12.6998 108.932 9.665 111.317 8.43677C111.311 8.44273 113.213 11.6206 109.528 12.6998Z" fill="#938F05"/>
<path d="M112.194 17.3562C112.194 17.3562 111.484 13.7252 114.322 12.2584C114.322 12.2584 116.6 16.0624 112.194 17.3562Z" fill="#938F05"/>
<path d="M114.257 22.4302C114.257 22.4302 113.547 18.7991 116.385 17.3324C116.385 17.3324 118.663 21.1364 114.257 22.4302Z" fill="#938F05"/>
<path d="M109.272 12.7832C109.272 12.7832 107.764 10.0823 105.164 10.6785C105.164 10.6487 105.761 14.3334 109.272 12.7832Z" fill="#938F05"/>
<path d="M111.973 17.4696C111.973 17.4696 110.047 14.3096 106.965 15.1443C106.959 15.1443 107.841 19.4908 111.973 17.4696Z" fill="#938F05"/>
<path d="M114.018 22.4719C114.018 22.4719 111.753 19.5444 108.783 20.6832C108.783 20.713 110.137 24.9582 114.018 22.4719Z" fill="#938F05"/>
<path d="M115.616 30.9205H115.676C115.876 30.9164 116.075 30.9324 116.272 30.9682C116.274 30.9484 116.274 30.9284 116.272 30.9086C115.339 22.7872 112.15 15.0894 107.066 8.68709C106.798 8.3532 106.333 8.82423 106.595 9.15812C111.564 15.4282 114.685 22.9611 115.604 30.9086L115.616 30.9205Z" fill="#42352F"/>
<path d="M125.716 14.9177C125.716 14.9177 129.377 14.0412 127.97 10.9885C127.976 10.9885 125.454 11.4894 125.716 14.9177Z" fill="#938F05"/>
<path d="M123.474 17.9883C123.474 17.9883 123.981 15.3827 121.948 14.3334C121.966 14.3393 120.326 17.0641 123.474 17.9883Z" fill="#938F05"/>
<path d="M121.208 21.9771C121.208 21.9771 121.805 18.8588 119.384 17.6067C119.384 17.6127 117.422 20.874 121.208 21.9771Z" fill="#938F05"/>
<path d="M119.438 26.3355C119.438 26.3355 120.034 23.2172 117.613 21.9651C117.613 21.977 115.658 25.2265 119.438 26.3355Z" fill="#938F05"/>
<path d="M123.713 18.0599C123.713 18.0599 125.006 15.7405 127.236 16.2712C127.236 16.2533 126.73 19.3895 123.713 18.0599Z" fill="#938F05"/>
<path d="M121.399 22.0783C121.399 22.0783 123.051 19.3714 125.698 20.081C125.698 20.081 124.941 23.8134 121.399 22.0783Z" fill="#938F05"/>
<path d="M119.641 26.3712C119.641 26.3712 121.584 23.8611 124.13 24.8628C124.136 24.8628 122.974 28.4819 119.641 26.3712Z" fill="#938F05"/>
<path d="M125.603 14.5301C121.822 19.2838 119.251 24.8834 118.109 30.849C118.299 30.8191 118.502 30.7893 118.705 30.7714C119.833 24.9836 122.334 19.5509 125.997 14.9296C126.229 14.6494 125.86 14.226 125.603 14.5301Z" fill="#42352F"/>
<path d="M179.532 51.5918L179.562 82.6912L113.172 122.436V88.8443L179.532 51.5918Z" fill="#76B52C"/>
<path d="M75.5732 69.3535V100.739L113.172 122.436V88.8443L75.5732 69.3535Z" fill="#8CCE46"/>
<path d="M178.995 52.2834L112.796 92.8868L75.5732 71.178L107.639 58.8301" fill="#63A01C"/>
<path d="M71.3875 68.7274L108.276 90.2931C119.557 88.4653 130.409 84.5939 140.3 78.8693C156.804 69.3296 179.538 51.5977 179.538 51.5977L145.63 31.7134L97.6634 60.3921C97.6634 60.3921 84.4091 66.9387 71.3875 68.7274Z" fill="#8ED815"/>
<path d="M75.5732 69.3536L108.914 88.8443C108.914 88.8443 124.488 85.7678 139.406 77.1523C154.323 68.5367 174.87 52.4981 174.87 52.4981L144.235 34.5277L100.877 60.4518C92.7764 64.2941 84.2955 67.2776 75.5732 69.3536V69.3536Z" stroke="#736357" stroke-miterlimit="10"/>
<path d="M129.306 72.5911C138.733 72.5911 146.376 67.9543 146.376 62.2346C146.376 56.5148 138.733 51.8781 129.306 51.8781C119.878 51.8781 112.236 56.5148 112.236 62.2346C112.236 67.9543 119.878 72.5911 129.306 72.5911Z" fill="#63A01C"/>
<path d="M24.6609 98.3482C24.2758 95.6485 24.5562 92.8955 25.4777 90.3289C27.0101 86.1553 33.6938 97.2869 33.6938 97.2869" fill="#F2AE16"/>
<path d="M45.2907 85.5532C55.0093 86.8529 61.6036 93.3042 60.0176 99.9402C58.4317 106.576 49.2855 110.917 39.5431 109.617C29.8007 108.317 23.2302 101.866 24.8162 95.23C26.4021 88.5939 35.5722 84.2534 45.2907 85.5532Z" fill="#CCB800"/>
<path d="M45.5886 81.8148C55.3072 83.1145 61.9015 89.5658 60.3155 96.2018C58.7295 102.838 49.5833 107.178 39.8409 105.879C30.0985 104.579 23.528 98.1276 25.114 91.4916C26.7 84.8555 35.87 80.515 45.5886 81.8148Z" fill="#FFE608"/>
<path d="M45.2368 83.2994C53.757 84.4382 59.5464 90.0845 58.1452 95.9037C56.7441 101.723 48.7248 105.521 40.2046 104.382C31.6845 103.243 25.8951 97.597 27.2963 91.7778C28.6974 85.9586 36.7167 82.1606 45.2368 83.2994Z" stroke="#988904" stroke-miterlimit="10"/>
<path d="M43.0425 88.6894C42.3062 89.0793 41.6986 89.6742 41.2933 90.4022C40.888 91.1303 40.7024 91.9601 40.759 92.7914C39.0299 93.0339 37.3048 93.2843 35.5837 93.5427C35.5725 93.1913 35.6106 92.8401 35.697 92.4993C35.9653 91.4559 33.7771 91.3068 33.5088 92.3144C33.3886 92.8247 33.3724 93.3539 33.4611 93.8706L30.6051 94.3178C29.2279 94.5384 29.5558 96.1721 30.945 95.9455L33.9739 95.4745C34.5874 96.7629 35.6337 97.795 36.9304 98.391C38.227 98.987 39.6916 99.1091 41.069 98.7359C43.5195 98.0919 43.4062 96.2436 43.1737 94.6278C43.1737 94.4668 43.126 94.3058 43.0962 94.1449C44.7378 93.9223 46.3834 93.7076 48.033 93.5009C47.9926 94.2387 47.8747 94.9701 47.6812 95.6831C47.401 96.7265 49.5891 96.8756 49.8694 95.868C50.1041 95.0094 50.2204 94.1227 50.2152 93.2326L51.9204 93.024C53.3216 92.863 52.9817 91.2353 51.5806 91.3962L50.0005 91.587C49.7674 90.6691 49.2698 89.8398 48.5696 89.2021C47.803 88.5783 46.8682 88.1965 45.884 88.1052C44.8999 88.0139 43.9108 88.2172 43.0425 88.6894ZM41.1167 95.6295C40.5205 97.1678 39.012 97.5136 37.4558 96.5596C36.876 96.2168 36.3905 95.7353 36.0428 95.1585C37.6963 94.908 39.3519 94.6676 41.0094 94.437C41.1404 94.8201 41.1772 95.2291 41.1167 95.6295ZM46.8703 90.2276C47.3914 90.632 47.7509 91.2093 47.8839 91.8553C46.2383 92.062 44.5947 92.2767 42.9531 92.4993C42.9555 92.3496 42.9674 92.2002 42.9889 92.0521C43.2035 90.7762 44.7716 88.7549 46.8703 90.2276Z" fill="#F7931E"/>
<path d="M80.3429 0L66.6296 6.14714L72.103 9.30717L57.7934 38.7729L41.4806 33.1624L30.176 61.3283C32.3582 62.6341 34.5702 63.8862 36.7346 65.2277L45.7138 42.4338L61.7465 47.5137L77.5943 12.336L83.813 16.0804L80.3429 0Z" fill="#353C7E"/>
<path d="M92.6313 79.412L96.3756 77.9333L95.2249 71.8935L91.731 71.1542L92.6313 79.412Z" fill="#212836"/>
<path d="M147.455 24.3024C147.455 24.3024 149.44 25.0119 149.661 25.0119C149.881 25.0119 153.375 24.9701 153.149 27.0212C152.922 29.0722 147.455 28.5356 147.455 28.5356L144.938 25.8943" fill="#EA831C"/>
<path d="M154.478 26.7827L151.682 25.8526C151.682 25.8526 148.283 25.1192 147.949 25.8526C147.615 26.5859 148.546 29.0126 148.885 29.0901L151.461 29.6863L154.001 29.9785" fill="#F7931E"/>
<path d="M132.418 53.9946C132.418 53.9946 115.079 65.3826 113.38 65.5436C111.681 65.7046 94.5811 72.3824 94.5811 72.3824C94.5811 72.3824 95.4277 76.6872 94.9746 78.6667C94.9746 78.6667 126.217 70.7964 130.152 69.4549C134.087 68.1134 143.126 59.164 140.819 56.7552C138.511 54.3464 132.418 53.9946 132.418 53.9946Z" fill="#417BB1"/>
<path d="M142.446 36.0481C141.027 34.7066 138.66 28.7145 139.239 27.3312C139.817 25.948 143.639 28.2375 143.639 28.2375L147.461 24.3083C147.461 24.3083 142.136 19.926 139.59 19.2225C137.044 18.5189 135.077 19.3417 134.266 22.4004C133.455 25.459 136.12 36.221 135.78 38.4986C135.441 40.7762 132.418 54.0006 132.418 54.0006C134.85 58.1742 144.801 60.3684 146.191 60.0166C147.58 59.6648 154.639 43.8826 154.639 43.8826C154.639 43.8826 167.834 35.2849 166.099 31.2783C164.364 27.2716 156.714 26.1507 155.152 25.9599C153.59 25.7691 152.403 30.8251 152.403 30.8251C152.403 30.8251 157.406 32.2322 157.871 32.8762C158.336 33.5201 156.136 35.1597 151.968 36.06C147.8 36.9603 146.876 36.4595 146.876 36.4595" fill="#1323AC"/>
<path d="M92.6315 79.4119C92.6315 79.4119 92.9535 76.556 93.18 75.2383C93.4066 73.9206 94.2354 66.6108 90.9203 66.8613C87.6053 67.1117 89.7279 74.2247 89.6027 75.0117C89.4775 75.7988 89.1615 78.0227 89.6504 78.7143C90.1393 79.406 91.5643 80.1572 92.6315 79.4119Z" fill="#212836"/>
<path d="M88.4637 73.7419C88.4637 73.7419 87.2713 74.5587 86.4544 73.5868C85.6376 72.615 85.1845 64.6732 84.5823 63.0872C83.9801 61.5012 83.9145 58.687 85.8522 58.5022C87.79 58.3174 88.0643 59.2713 88.4637 60.5473C88.8632 61.8232 90.4253 65.7703 91.8801 66.2711C93.0899 66.6548 94.3201 66.9713 95.5648 67.2191L95.231 71.8936L88.4637 73.7419Z" fill="#33394F"/>
<path d="M143.895 38.1707C143.895 38.1707 140.491 53.5773 140.348 53.9947C140.205 54.412 137.116 56.2067 137.116 56.2067L136.43 53.4342L142.947 37.8845L143.895 38.1707Z" fill="#091114"/>
<path d="M148.397 36.5787C148.397 36.5787 143.949 40.4244 144.146 40.1561C144.343 39.8878 143.198 38.3674 143.198 38.3674L141.2 38.9636L143.484 34.9689" fill="#091114"/>
<path d="M141.361 29.418C141.361 29.418 139.68 35.6426 142.458 37.008C145.237 38.3734 147.186 36.3402 148.033 34.48C148.88 32.6197 148.516 28.2732 144.939 27.826C141.808 27.4385 141.361 29.418 141.361 29.418Z" fill="#F7931E"/>
<path d="M140.598 28.2972C140.482 28.4439 140.405 28.6172 140.372 28.8015C140.34 28.9858 140.354 29.1752 140.413 29.3527C140.472 29.5301 140.575 29.6901 140.711 29.8181C140.848 29.9461 141.014 30.0381 141.195 30.0859C141.425 30.1424 141.664 30.1472 141.896 30.0997C142.128 30.0523 142.347 29.9539 142.536 29.8116C142.989 29.4897 143.395 28.959 144.021 29.2154C144.192 29.2865 144.338 29.4088 144.437 29.5657C144.536 29.7227 144.584 29.9064 144.575 30.0918C144.513 30.3334 144.483 30.5819 144.486 30.8312C144.534 31.0056 144.645 31.1565 144.796 31.2562C144.947 31.3559 145.129 31.3977 145.309 31.3737C145.905 31.3737 146.37 31.0995 146.883 31.5586C147.075 31.7379 147.2 31.9773 147.238 32.2374C147.276 32.4975 147.224 32.7628 147.091 32.9895C146.998 33.0885 146.918 33.1987 146.853 33.3175C146.757 33.4844 146.948 33.6096 147.097 33.5619C147.138 33.554 147.176 33.5331 147.205 33.5023C147.285 33.415 147.355 33.319 147.413 33.2161C147.469 33.1623 147.538 33.1233 147.613 33.1025C147.688 33.0817 147.767 33.0798 147.843 33.0969C148.242 33.2042 148.075 33.6215 147.843 33.8362C147.678 34.0056 147.477 34.1347 147.255 34.2134C147.032 34.292 146.795 34.318 146.561 34.2893C146.52 34.285 146.48 34.2932 146.444 34.313C146.409 34.3327 146.38 34.3629 146.362 34.3995C146.345 34.4361 146.339 34.4772 146.346 34.5173C146.352 34.5573 146.371 34.5943 146.4 34.6232C146.378 34.6438 146.363 34.6692 146.353 34.6972C146.344 34.7252 146.341 34.755 146.346 34.7842C146.406 35.1918 146.339 35.608 146.155 35.9766C146.14 36 146.129 36.0262 146.124 36.0537C146.119 36.0812 146.12 36.1093 146.126 36.1366C146.132 36.1638 146.144 36.1896 146.16 36.2123C146.176 36.235 146.197 36.2542 146.221 36.2688C146.217 36.2956 146.221 36.3228 146.231 36.3478C146.241 36.3729 146.257 36.3951 146.278 36.4123C146.299 36.4295 146.323 36.4412 146.35 36.4464C146.376 36.4515 146.404 36.4499 146.429 36.4417C147.155 36.2484 147.83 35.9007 148.409 35.4222C149.75 34.2124 150.674 32.6097 151.05 30.8431C151.426 29.1379 150.955 26.6337 148.773 26.5979C148.684 26.6045 148.595 26.5944 148.51 26.5681C148.448 26.5383 148.392 26.498 148.343 26.4489C147.8 25.9706 147.144 25.6377 146.437 25.4813C145.73 25.325 144.995 25.3501 144.301 25.5545C143.912 25.6452 143.548 25.8202 143.234 26.0673C142.971 25.8276 142.646 25.6665 142.296 25.6022C141.946 25.5379 141.585 25.573 141.254 25.7036C140.372 26.1269 140.497 27.4923 140.789 28.2435C140.755 28.2341 140.72 28.2342 140.686 28.2436C140.653 28.2531 140.622 28.2716 140.598 28.2972ZM144.068 28.8159H144.128H144.164C144.199 28.8424 144.237 28.8644 144.277 28.8815C144.399 28.9304 144.502 29.0184 144.569 29.1319C144.43 28.9919 144.261 28.8858 144.074 28.8219L144.068 28.8159ZM141.004 27.5817C141.025 27.6508 141.051 27.7185 141.081 27.7844C141.034 27.7308 141.022 27.6592 141.004 27.5817Z" fill="#935542"/>
<path d="M146.184 60.0107C146.184 60.0107 143.323 68.9541 137.617 70.8144C131.911 72.6746 127.308 69.0793 124.666 69.926C122.025 70.7726 100.269 73.4378 94.5985 72.3824C94.5985 72.3824 93.6386 66.2293 94.992 64.9415C96.3455 63.6536 120.105 58.8063 122.419 58.4783C124.732 58.1504 135.089 56.5585 135.089 56.5585" fill="#7AB3D3"/>
<path d="M24.5598 89.6494C24.1747 86.9496 24.4551 84.1967 25.3767 81.6301C26.909 77.4564 33.5927 88.5881 33.5927 88.5881" fill="#F2AE16"/>
<path d="M45.1892 76.8303C54.9077 78.13 61.5021 84.5813 59.9161 91.2173C58.3301 97.8534 49.1839 102.194 39.4415 100.894C29.6991 99.5944 23.1286 93.1431 24.7146 86.5071C26.3006 79.871 35.4706 75.5543 45.1892 76.8303Z" fill="#CCB800"/>
<path d="M45.4875 73.1158C55.2061 74.4156 61.8004 80.8668 60.2144 87.5028C58.6284 94.1389 49.4823 98.4795 39.7398 97.1797C29.9974 95.8799 23.427 89.4287 25.0129 82.7926C26.5989 76.1566 35.7689 71.816 45.4875 73.1158Z" fill="#FFE608"/>
<path d="M45.1294 74.6064C53.6496 75.7452 59.439 81.3915 58.0378 87.2107C56.6367 93.0299 48.6174 96.8279 40.0972 95.6891C31.5771 94.5503 25.7877 88.904 27.1888 83.0848C28.59 77.2655 36.6152 73.4616 45.1294 74.6064Z" stroke="#988904" stroke-miterlimit="10"/>
<path d="M42.9353 79.9903C42.199 80.3802 41.5914 80.9751 41.1861 81.7031C40.7809 82.4312 40.5953 83.261 40.6518 84.0923C38.9227 84.3348 37.1976 84.5852 35.4765 84.8436C35.4653 84.4922 35.5035 84.141 35.5898 83.8002C35.8581 82.7568 33.6699 82.6077 33.4016 83.6153C33.2814 84.1256 33.2652 84.6548 33.3539 85.1715L30.498 85.6187C29.1207 85.8393 29.4486 87.473 30.8378 87.2464L33.8667 86.7754C34.4803 88.0638 35.5266 89.0959 36.8232 89.6919C38.1198 90.2879 39.5845 90.41 40.9618 90.0367C43.4123 89.3928 43.2991 87.5445 43.0665 85.9287C43.0665 85.7677 43.0188 85.6068 42.989 85.4458C44.6306 85.2232 46.2762 85.0085 47.9258 84.8018C47.8854 85.5396 47.7675 86.271 47.574 86.984C47.2938 88.0274 49.482 88.1765 49.7622 87.1689C49.9969 86.3103 50.1132 85.4236 50.108 84.5335L51.8132 84.3249C53.2144 84.1639 52.8745 82.5362 51.4734 82.6971L49.8934 82.8879C49.6602 81.97 49.1627 81.1407 48.4624 80.503C47.6958 79.8792 46.761 79.4974 45.7769 79.4061C44.7927 79.3148 43.8037 79.5181 42.9353 79.9903ZM41.0095 86.9304C40.4133 88.4687 38.9048 88.8145 37.3487 87.8605C36.7689 87.5177 36.2833 87.0362 35.9356 86.4594C37.5891 86.2089 39.2447 85.9685 40.9022 85.7379C41.0332 86.121 41.07 86.53 41.0095 86.9304ZM46.7632 81.5285C47.2843 81.9329 47.6437 82.5102 47.7767 83.1562C46.1311 83.3629 44.4875 83.5776 42.8459 83.8002C42.8483 83.6505 42.8602 83.5011 42.8817 83.353C43.0963 82.0771 44.7002 80.032 46.7632 81.5285Z" fill="#F7931E"/>
<path d="M23.3074 82.1965C22.9223 79.4968 23.2027 76.7438 24.1242 74.1772C25.6565 70.0036 32.3403 81.1352 32.3403 81.1352" fill="#F2AE16"/>
<path d="M43.9372 69.4013C53.6558 70.7011 60.2501 77.1523 58.6641 83.7884C57.0782 90.4244 47.932 94.765 38.1896 93.4652C28.4471 92.1654 21.8767 85.7142 23.4626 79.0781C25.0486 72.4421 34.2187 68.1015 43.9372 69.4013Z" fill="#CCB800"/>
<path d="M44.2358 65.6688C53.9544 66.9686 60.5487 73.4198 58.9627 80.0559C57.3767 86.6919 48.2306 91.0325 38.4881 89.7327C28.7457 88.4329 22.1753 81.9817 23.7612 75.3457C25.3472 68.7096 34.5172 64.3631 44.2358 65.6688Z" fill="#FFE608"/>
<path d="M43.8775 67.1534C52.3977 68.2922 58.1871 73.9385 56.7859 79.7577C55.3848 85.5769 47.3595 89.3511 38.8454 88.2361C30.3312 87.1212 24.5358 81.451 25.937 75.6318C27.3381 69.8126 35.3634 66.0146 43.8775 67.1534Z" stroke="#988904" stroke-miterlimit="10"/>
<path d="M41.6833 72.5435C40.948 72.9342 40.3417 73.5295 39.9375 74.2575C39.5333 74.9854 39.3486 75.8149 39.4057 76.6455C37.6766 76.888 35.9515 77.1384 34.2304 77.3968C34.2192 77.0454 34.2574 76.6942 34.3437 76.3534C34.612 75.31 32.4238 75.1609 32.1555 76.1686C32.0353 76.6788 32.0191 77.208 32.1078 77.7247L29.2519 78.1719C27.8746 78.3925 28.2025 80.0262 29.5917 79.7996L32.6206 79.3286C33.2342 80.617 34.2805 81.6491 35.5771 82.2451C36.8737 82.8412 38.3384 82.9632 39.7157 82.59C42.1662 81.946 42.053 80.0977 41.8204 78.4819C41.8204 78.3209 41.7727 78.16 41.7429 77.999C43.3845 77.7764 45.0301 77.5617 46.6797 77.3551C46.6393 78.0928 46.5214 78.8242 46.3279 79.5373C46.0477 80.5807 48.2359 80.7297 48.5161 79.7221C48.7508 78.8635 48.8671 77.9768 48.8619 77.0867L50.5671 76.8781C51.9683 76.7171 51.6284 75.0894 50.2273 75.2504L48.6473 75.4411C48.4141 74.5232 47.9166 73.6939 47.2163 73.0562C46.4491 72.4312 45.5132 72.0486 44.5279 71.9573C43.5425 71.866 42.5523 72.07 41.6833 72.5435ZM39.7575 79.4836C39.1612 81.0219 37.6528 81.3677 36.0966 80.4137C35.5168 80.0709 35.0312 79.5894 34.6835 79.0126C36.3371 78.7622 37.9926 78.5217 39.6501 78.2911C39.7802 78.6724 39.817 79.0792 39.7575 79.4776V79.4836ZM45.5111 74.0817C46.0322 74.4861 46.3917 75.0634 46.5247 75.7095C44.8791 75.9161 43.2355 76.1308 41.5939 76.3534C41.5962 76.2037 41.6082 76.0543 41.6296 75.9062C41.8443 74.6243 43.4481 72.5792 45.5111 74.0758V74.0817Z" fill="#988904"/>
<path d="M56.7858 67.541C56.7858 67.541 57.0779 72.0724 53.5542 72.3526C53.5542 72.3526 56.5354 73.5928 57.0362 75.9658C57.0362 75.9658 57.4058 72.6507 60.4347 72.3109C59.362 72.0732 58.4076 71.4643 57.74 70.5917C57.0724 69.719 56.7345 68.6386 56.7858 67.541Z" fill="white"/>
<path d="M179.52 57.0175C174.053 60.5531 168.555 64.0351 163.052 67.5111L146.501 77.8677L129.878 88.1109L121.531 93.1908L113.183 98.217L121.393 92.9285L129.645 87.7055L146.197 77.3489L162.826 67.1236C168.376 63.7131 173.939 60.3444 179.52 57.0175Z" fill="#009245"/>
<path d="M179.52 60.422C174.053 63.9576 168.555 67.4396 163.052 70.9157L146.501 81.2722L129.878 91.5154L121.531 96.5953L113.183 101.622L121.399 96.3449L129.657 91.1398L146.209 80.7833L162.826 70.5221C168.394 67.1296 173.951 63.749 179.52 60.422Z" fill="#009245"/>
<path d="M180.188 64.208C174.72 67.7437 169.223 71.2256 163.72 74.7017L147.168 85.0582L130.546 95.3134L122.198 100.393L113.851 105.419L122.067 100.143L130.319 94.9199L146.852 84.5812L163.481 74.338C169.032 70.9216 174.595 67.5409 180.188 64.208Z" fill="#009245"/>
<path d="M180.188 68.7932C174.72 72.3289 169.223 75.8108 163.72 79.2869L147.168 89.6494L130.546 99.8926L122.198 104.973L113.851 109.999L122.067 104.722L130.301 99.4872L146.852 89.1307L163.481 78.8874C169.032 75.5068 174.595 72.1261 180.188 68.7932Z" fill="#009245"/>
<path d="M179.52 73.9148C174.053 77.4504 168.555 80.9324 163.052 84.4085L146.501 94.765L129.878 105.008L121.531 110.088L113.183 115.114L121.399 109.838L129.651 104.615L146.203 94.2582L162.826 84.0209C168.382 80.6284 173.945 77.2418 179.52 73.9148Z" fill="#009245"/>
<path d="M179.556 77.3193C174.089 80.855 168.591 84.337 163.088 87.813L146.537 98.1695L129.908 108.431L121.561 113.511L113.213 118.537L121.429 113.26L129.681 108.037L146.233 97.6806L162.826 87.4255C168.401 84.0329 173.963 80.6463 179.556 77.3193Z" fill="#009245"/>
<path d="M76.1577 77.3729C79.1985 78.9351 82.2095 80.5568 85.2145 82.1845C88.2195 83.8122 91.1768 85.4817 94.1937 87.1332C97.2106 88.7848 100.156 90.49 103.107 92.2012L107.537 94.7769C109.004 95.6534 110.483 96.5119 111.938 97.4063C110.411 96.6312 108.909 95.8203 107.394 95.0214L102.881 92.5887C99.8996 90.961 96.9185 89.2916 93.9015 87.64C90.8846 85.9885 87.9392 84.2832 84.9879 82.5721C82.0366 80.8609 79.0792 79.1497 76.1577 77.3729Z" fill="#009245"/>
<path d="M76.1577 81.4331C79.1985 82.9952 82.2095 84.617 85.2145 86.2447C88.2195 87.8724 91.1768 89.5418 94.1937 91.1934C97.2106 92.845 100.156 94.5502 103.107 96.2614L107.537 98.8371C109.004 99.7136 110.483 100.572 111.938 101.466C110.411 100.691 108.909 99.8805 107.394 99.0816L102.881 96.6489C99.8996 95.0212 96.9185 93.3518 93.9015 91.7002C90.8846 90.0486 87.9392 88.3434 84.9879 86.6322C82.0366 84.9211 79.0792 83.2099 76.1577 81.4331Z" fill="#009245"/>
<path d="M76.6824 85.8691C79.7232 87.4313 82.7341 89.053 85.7391 90.6807C88.7441 92.3084 91.7014 93.9779 94.7184 95.6294C97.7353 97.281 100.681 98.9862 103.632 100.697L108.062 103.273C109.529 104.15 111.007 105.008 112.462 105.903C110.936 105.127 109.433 104.317 107.919 103.518L103.405 101.085C100.424 99.4572 97.4431 97.7878 94.4262 96.1362C91.4093 94.4847 88.4639 92.7795 85.5126 91.0683C82.5612 89.3571 79.6039 87.6459 76.6824 85.8691Z" fill="#009245"/>
<path d="M76.6824 89.9474C79.7232 91.5095 82.7341 93.1313 85.7391 94.759C88.7441 96.3867 91.7014 98.0561 94.7184 99.7077C97.7353 101.359 100.681 103.064 103.632 104.776L108.062 107.351C109.529 108.228 111.007 109.086 112.462 109.981C110.936 109.206 109.433 108.395 107.919 107.596L103.405 105.163C100.424 103.535 97.4431 101.866 94.4262 100.214C91.4093 98.5629 88.4639 96.8577 85.5126 95.1465C82.5612 93.4353 79.6039 91.7063 76.6824 89.9474Z" fill="#009245"/>
<path d="M76.4795 92.8867C79.5203 94.4488 82.5312 96.0706 85.5362 97.6983C88.5412 99.326 91.4986 100.995 94.5155 102.647C97.5324 104.299 100.478 106.004 103.429 107.715L107.859 110.291C109.326 111.167 110.805 112.026 112.259 112.92C110.733 112.145 109.23 111.334 107.716 110.535L103.203 108.114C100.221 106.487 97.2403 104.817 94.2233 103.166C91.2064 101.514 88.261 99.809 85.3097 98.0978C82.3583 96.3866 79.407 94.6635 76.4795 92.8867Z" fill="#009245"/>
<path d="M76.4795 96.9473C79.5203 98.5094 82.5312 100.131 85.5362 101.759C88.5412 103.387 91.4986 105.056 94.5155 106.708C97.5324 108.359 100.478 110.064 103.429 111.776L107.859 114.351C109.326 115.228 110.805 116.086 112.259 116.981C110.733 116.206 109.23 115.395 107.716 114.596L103.203 112.169C100.221 110.541 97.2403 108.872 94.2233 107.22C91.2064 105.569 88.261 103.864 85.3097 102.152C82.3583 100.441 79.407 98.724 76.4795 96.9473Z" fill="#009245"/>
<defs>
<linearGradient id="paint0_linear" x1="116.622" y1="25.9989" x2="119.897" y2="43.1432" gradientUnits="userSpaceOnUse">
<stop stop-color="#FFF500"/>
<stop offset="1" stop-color="#707A00"/>
</linearGradient>
</defs>
</svg>
