<svg width="126" height="140" viewBox="0 0 126 140" fill="none" xmlns="http://www.w3.org/2000/svg">
<path d="M0 97.9285L72.547 140L125.938 109.17L54.074 67.0045L0 97.9285Z" fill="#E8C300"/>
<path style="mix-blend-mode:multiply" d="M49.2665 96.5312L42.7594 91.4476L17.4248 106.464C18.2851 107.053 19.8754 108.549 26.1582 112.043C34.4067 106.229 41.1379 102.522 49.2665 96.5312Z" fill="url(#paint0_linear)"/>
<path style="mix-blend-mode:multiply" d="M80.8165 94.0129C72.8391 99.2947 49.4024 115.885 41.5137 121.292C54.9344 128.701 68.7462 136.251 70.2269 137.32L108.404 111.12L80.8165 94.0129Z" fill="url(#paint1_linear)"/>
<path d="M81.1391 98.1058L93.7673 104.748L94.1427 107.872L80.7793 100.332" fill="#11265F"/>
<path d="M80.628 93.0118L75.4141 111.782L76.3682 112.335C76.6164 112.206 76.8551 112.059 77.0825 111.897C77.3641 111.683 83.8346 92.1827 83.8346 92.1827" fill="#E27623"/>
<path d="M92.6259 89.3516L96.1766 100.431L95.869 122.591L95.0713 123.112L93.9763 122.429L93.1578 100.421L89.9512 89.3516" fill="#11265F"/>
<path d="M78.6841 88.0273C78.6841 88.0273 78.2931 90.4831 79.1377 91.8439C79.9824 93.2047 82.2244 89.8157 82.2244 89.8157" fill="#FFB469"/>
<path d="M90.4517 74.6378L89.9512 83.6058L92.3027 84.8259L92.7406 75.2114" fill="#CA6B00"/>
<path d="M105.222 81.2439L106.802 93.3716L108.398 111.214L107.376 111.819L106.354 111.182L104.08 93.6479L102.553 81.2439" fill="#11265F"/>
<path d="M103.627 82.7559C104.29 82.9593 105.713 81.9165 106.141 81.2439C108.471 77.5941 107.799 72.5992 103.601 70.2946C101.745 69.2518 99.8212 68.2455 97.9755 67.1662C96.3331 66.2277 94.5916 65.43 93.0013 64.408C92.7936 64.2656 92.5717 64.145 92.3392 64.0483C91.9053 63.9315 91.4466 63.9465 91.0213 64.0913C90.596 64.2362 90.2235 64.5043 89.9512 64.8616" fill="#EAED47"/>
<path d="M103.799 82.5995C104.92 82.563 105.567 81.0718 105.885 80.1959C106.797 77.7923 106.974 73.2144 104.232 71.8536C104.18 71.8305 104.135 71.7944 104.101 71.7487C104.067 71.703 104.046 71.6493 104.039 71.5929L98.7781 68.5531L94.7217 66.2016C94.0126 65.7897 93.3348 65.3257 92.6361 64.9086C91.9374 64.4914 91.2231 64.017 90.441 64.4862C89.5807 65.0076 89.4608 65.9774 89.3304 66.8847C88.9769 68.9808 89.0873 71.129 89.6537 73.1779C90.0812 74.544 91.1605 75.472 92.3597 76.1707L96.1399 78.3606L103.147 82.4014C103.259 82.4728 103.38 82.5289 103.507 82.5682C103.603 82.5924 103.701 82.6029 103.799 82.5995Z" fill="#FCBD4C"/>
<path d="M104.566 92.3131L104.78 92.4383C105.371 92.7312 105.901 93.1327 106.344 93.6218C107.387 94.9566 106.38 96.4791 105.301 97.4124C102.449 99.9464 98.1318 102.022 94.2631 101.062C90.9193 100.158 87.7321 98.7512 84.8102 96.891C82.4222 95.4676 79.3928 93.7105 78.7724 90.7072C78.6576 90.0378 78.7016 89.3508 78.9008 88.7015C79.1 88.0521 79.4489 87.4587 79.9195 86.9688C85.9885 79.9352 94.5185 86.5361 100.525 89.9825L104.566 92.3131Z" fill="#91940F"/>
<path d="M106.672 92.5843C106.719 92.6312 106.99 94.576 106.797 95.1548C106.4 96.0993 105.806 96.9488 105.056 97.647C104.347 98.2154 104.774 94.2475 104.774 94.2475" fill="#91940F"/>
<path d="M104.566 90.6185L104.78 90.7436C105.371 91.0366 105.902 91.4381 106.344 91.9272C107.387 93.262 106.381 94.7845 105.301 95.7178C102.449 98.2517 98.1322 100.327 94.2634 99.3675C90.9197 98.463 87.7325 97.0566 84.8105 95.1964C82.3912 93.7417 79.3671 91.9898 78.7363 88.9865C78.6214 88.3171 78.6654 87.6301 78.8647 86.9807C79.0639 86.3314 79.4128 85.738 79.8833 85.2481C85.9524 78.2145 94.4824 84.8154 100.489 88.2618L104.566 90.6185Z" fill="#EAED47"/>
<path d="M57.0723 0.47447L59.1213 0L81.7343 13.0245L81.3589 57.5673L80.5142 58.0366" fill="#3D53A3"/>
<path d="M57.0712 0.474426L56.8105 44.4281L80.5132 58.0365V13.7283L57.0712 0.474426Z" fill="#5872D2"/>
<path d="M57.9062 2.85724V43.8025L79.4347 55.7268V15.0266L57.9062 2.85724Z" fill="#A6B4F5"/>
<path d="M39.0059 76.4679C39.0059 76.4679 39.4751 97.136 46.54 97.6261C53.6049 98.1163 54.0742 76.4679 54.0742 76.4679" fill="#6DE2FC"/>
<path d="M39.0059 76.4679C39.0059 76.4679 39.4751 97.136 46.54 97.6261C53.6049 98.1163 54.0742 76.4679 54.0742 76.4679" fill="#021E6A"/>
<path d="M46.54 80.3784C50.701 80.3784 54.0742 78.6276 54.0742 76.4679C54.0742 74.3082 50.701 72.5574 46.54 72.5574C42.379 72.5574 39.0059 74.3082 39.0059 76.4679C39.0059 78.6276 42.379 80.3784 46.54 80.3784Z" fill="#0E0036"/>
<path d="M44.4906 79.1374C43.1523 70.9254 40.7802 62.9157 37.4309 55.2992C37.1597 54.6788 36.2525 55.2158 36.5236 55.8206C39.8272 63.3586 42.1642 71.2842 43.4791 79.4086C43.5833 80.0812 44.5948 79.7996 44.4906 79.1374Z" fill="#311E69"/>
<path d="M48.7977 80.4461C48.2798 70.4423 47.383 60.4697 46.1073 50.5284C46.0239 49.8663 44.9707 49.8558 45.0645 50.5284C46.3367 60.4454 47.2318 70.4006 47.7497 80.394C48.0938 80.3992 48.4484 80.4201 48.7977 80.4461Z" fill="#311E69"/>
<path d="M35.1005 53.3544C33.8638 53.0249 32.5516 53.1298 31.383 53.6516C30.5383 54.027 28.776 55.0959 29.1253 56.2586C29.4746 57.4213 31.5967 57.2284 32.4414 56.9677C33.092 56.7504 33.6886 56.3965 34.1913 55.9298C34.694 55.4631 35.0911 54.8943 35.356 54.2616C35.3727 54.2214 35.385 54.1794 35.3925 54.1365C35.4363 54.0683 35.4636 53.9909 35.4722 53.9103C35.4808 53.8297 35.4706 53.7483 35.4423 53.6724C35.4139 53.5965 35.3683 53.5282 35.3089 53.473C35.2496 53.4178 35.1783 53.3772 35.1005 53.3544Z" fill="#C3EA75"/>
<path d="M37.0607 52.1239C36.8417 50.7631 36.7478 49.1781 35.8093 48.0883C35.1054 47.275 33.8437 46.7796 32.853 47.3897C31.8624 47.9997 32.0605 49.4752 32.6288 50.3199C33.4422 51.5608 34.8812 52.0979 36.0335 52.9269C36.0906 52.9715 36.1577 53.0016 36.229 53.0147C36.3002 53.0277 36.3736 53.0232 36.4428 53.0017C36.512 52.9802 36.5749 52.9422 36.6262 52.891C36.6776 52.8399 36.7157 52.777 36.7374 52.7079C36.8476 52.6591 36.9388 52.5757 36.9972 52.4702C37.0555 52.3648 37.0778 52.2432 37.0607 52.1239ZM35.4548 49.517C35.2234 49.1227 34.9273 48.7701 34.5788 48.4742V48.3386C34.9886 48.6491 35.3059 49.0656 35.4965 49.543L35.4548 49.517Z" fill="#C3EA75"/>
<path d="M39.8187 49.9601C38.1189 49.1937 37.827 52.1135 37.7852 53.0885C37.7748 53.1979 37.8045 53.3074 37.8688 53.3966C37.933 53.4858 38.0275 53.5486 38.1346 53.5734C38.232 53.6689 38.3631 53.7224 38.4996 53.7224C38.636 53.7224 38.7671 53.6689 38.8645 53.5734C39.4381 53.052 40.1628 52.5723 40.3401 51.7798C40.4756 51.1906 40.4756 50.2521 39.8187 49.9601Z" fill="#C3EA75"/>
<path d="M46.6024 43.7295C46.2426 42.5563 45.0382 41.4927 43.7764 42.0506C42.5146 42.6085 42.7336 44.3708 42.9526 45.5126C43.1716 46.6545 43.8546 48.6984 45.1685 48.8965C45.5486 48.881 45.9198 48.7775 46.253 48.5941C46.7901 47.1081 47.0821 45.278 46.6024 43.7295ZM45.4762 46.8578V46.8318C45.4992 46.6414 45.5114 46.4499 45.5127 46.2582C45.547 46.537 45.547 46.8189 45.5127 47.0977C45.5179 47.0351 45.497 46.9569 45.4762 46.8735V46.8578Z" fill="#C3EA75"/>
<path d="M50.5866 47.7546C49.3196 48.0987 48.0265 48.6566 47.4582 49.9393C47.4151 50.0357 47.4006 50.1424 47.4163 50.2468C47.432 50.3512 47.4773 50.449 47.5468 50.5284C47.5937 51.7381 50.0495 51.128 50.7378 50.9925C51.8483 50.7787 53.1831 50.226 53.1362 48.9069C53.1101 47.4314 51.6606 47.4731 50.5866 47.7546ZM52.0621 49.2771C52.0563 49.1933 52.0332 49.1117 51.9943 49.0372C52.045 48.9678 52.0903 48.8946 52.1299 48.8183C52.1686 48.893 52.183 48.9779 52.1708 49.0612C52.1586 49.1445 52.1206 49.2218 52.0621 49.2823V49.2771Z" fill="#C3EA75"/>
<path d="M43.9593 49.2042C43.4744 48.542 41.6078 46.4877 40.7944 47.7078C40.6477 47.985 40.5977 48.3033 40.6525 48.6122C40.7073 48.9211 40.8637 49.2028 41.0968 49.4127C41.6643 49.8909 42.3577 50.1951 43.0938 50.2887C43.2243 50.3192 43.3616 50.2984 43.4771 50.2304C43.5926 50.1625 43.6776 50.0526 43.7142 49.9237C43.7874 49.9051 43.8548 49.8685 43.9102 49.8173C43.9656 49.766 44.0074 49.7018 44.0318 49.6303C44.0561 49.5589 44.0622 49.4825 44.0496 49.4081C44.0369 49.3336 44.0059 49.2636 43.9593 49.2042ZM41.7955 48.6098L42.3169 48.9695L42.2283 48.933C42.0619 48.8587 41.914 48.7482 41.7955 48.6098Z" fill="#C3EA75"/>
<path d="M68.4853 126.053L66.4414 124.489C66.4414 124.489 66.6552 122.466 67.5155 122.22C68.3758 121.975 68.4853 126.053 68.4853 126.053Z" fill="#196132"/>
<path d="M67.0882 113.466C67.0882 113.466 63.819 122.017 63.3863 122.445C62.9535 122.872 57.9689 126.167 57.4423 126.955C56.9157 127.742 61.4884 128.081 63.282 127.997C65.0756 127.914 66.8327 127.372 67.0204 126.741C67.2081 126.11 67.1664 122.7 67.7816 122.898C68.3969 123.096 68.4855 126.058 68.4855 126.058L70.1644 125.464L72.7714 113.508" fill="#7FAE1A"/>
<path d="M76.5409 129.921L74.4971 128.357C74.4971 128.357 74.7108 126.334 75.5711 126.089C76.4314 125.844 76.5409 129.921 76.5409 129.921Z" fill="#196132"/>
<path d="M75.1223 117.335C75.1223 117.335 71.8532 125.886 71.4204 126.313C70.9877 126.741 66.0031 130.036 65.4765 130.823C64.9499 131.611 69.5225 131.95 71.3161 131.866C73.1097 131.783 74.8669 131.241 75.0546 130.61C75.2423 129.979 75.2005 126.569 75.8158 126.767C76.431 126.965 76.5197 129.927 76.5197 129.927L78.1986 129.332L80.8055 117.377" fill="#7FAE1A"/>
<path d="M97.2457 78.1625C98.0539 78.9394 93.0746 87.6571 91.8232 92.8606C90.5719 98.0642 77.9228 100.233 77.9228 100.233L73.1364 121.517C70.0582 121.197 67.0203 120.567 64.0693 119.634C64.0693 119.634 69.1738 94.8211 70.6441 92.1672C72.1145 89.5133 91.4322 79.9978 91.4322 79.9978" fill="#FFF0D7"/>
<path d="M100.353 79.9977C101.161 80.7746 103.481 86.8645 100.353 94.3465C98.2675 99.2842 87.0002 102.762 87.0002 102.762L80.3732 123.096C80.3732 123.096 76.9111 124.629 72.375 122.893C72.375 122.893 75.738 99.5188 77.2136 96.8649C78.6891 94.211 93.3768 84.8728 93.3768 84.8728" fill="#FFF0D7"/>
<path d="M101.193 64.8147C99.0051 63.7436 96.5815 63.2449 94.1487 63.3652C92.9603 63.4114 91.8151 63.8229 90.8691 64.5436C89.6543 65.5395 89.0859 67.1506 88.3768 68.4801C87.3032 70.4265 86.1248 72.3132 84.847 74.1321C83.6895 75.8579 82.6311 77.6723 81.2285 79.2157L84.7323 82.2085L90.6971 76.0717L98.7109 80.8685L91.1037 84.1689C90.4155 85.2639 95.5721 89.0492 95.5721 89.0492C95.5721 89.0492 103.883 88.7207 106.115 80.514C109.3 68.8816 101.224 64.8252 101.193 64.8147Z" fill="#E55600"/>
<path d="M87.0002 84.3827L88.1629 92.9023L85.5299 94.3466L83.46 86.5621" fill="#FFE8BC"/>
<path d="M90.6654 73.058C90.6654 73.058 89.9302 80.54 90.3161 81.4003C90.7019 82.2606 98.3873 86.1815 98.3873 86.1815L103.737 80.3523L90.6654 73.058Z" fill="#E55600"/>
<path d="M94.2687 60.1326C94.2687 60.1326 93.0434 63.2609 93.6482 64.3037C94.253 65.3465 97.1468 64.4497 97.1468 64.4497" fill="#700FBC"/>
<path d="M93.9297 58.5892C93.9297 58.5892 94.1956 64.7782 96.7765 65.2996C99.3574 65.821 100.52 62.604 100.52 62.604C100.52 62.604 100.796 58.4015 99.9205 57.5725C99.0446 56.7435 95.1706 56.7591 93.9297 58.5892Z" fill="#FCBF81"/>
<path d="M92.9072 57.9583C92.9072 57.9583 94.7582 60.2786 95.8062 60.8365C96.8542 61.3943 97.9804 60.9772 98.3767 61.7906C98.7729 62.604 97.7979 67.6511 99.0128 68.5114C100.228 69.3717 102.339 66.5562 103.419 67.8179C104.498 69.0797 104.096 71.5303 105.692 71.9891C107.287 72.4479 108.998 69.9035 107.392 68.0474C105.786 66.1912 105.588 65.2579 106.406 64.5749C107.631 63.5321 106.109 60.1274 104.576 59.5538C103.043 58.9803 102.444 55.6121 99.7114 54.929C96.9793 54.246 93.3713 56.0083 92.9072 57.9583Z" fill="#700FBC"/>
<path d="M91.4315 70.7221C91.1813 74.198 91.0075 77.6619 90.9101 81.1135C90.9101 81.5098 90.2845 81.4628 90.3001 81.0718C90.4044 77.5958 90.5782 74.132 90.8215 70.6804C90.835 70.6059 90.8755 70.539 90.9352 70.4925C90.9949 70.446 91.0697 70.4232 91.1452 70.4283C91.2207 70.4335 91.2916 70.4663 91.3445 70.5205C91.3973 70.5747 91.4283 70.6465 91.4315 70.7221Z" fill="#913904"/>
<path d="M91.2492 83.9656C93.286 83.2106 95.1186 81.9908 96.6012 80.4032C98.0838 78.8156 99.1756 76.904 99.7896 74.8203C99.9044 74.4397 100.478 74.6483 100.368 75.0237C99.728 77.1844 98.5938 79.1666 97.0554 80.8135C95.5171 82.4604 93.6168 83.727 91.5047 84.5131C91.1553 84.6538 90.879 84.1064 91.2492 83.9656Z" fill="#913904"/>
<path d="M94.9883 55.6904C94.9883 55.6904 99.4827 57.1138 99.4306 61.2067C99.4306 61.2067 100.322 58.7353 99.4306 56.754C99.157 56.179 98.7308 55.6902 98.1984 55.3408C97.6661 54.9915 97.0481 54.7949 96.4117 54.7727C96.4117 54.7727 95.0717 54.9656 94.9883 55.6904Z" fill="#2E2401"/>
<path d="M89.5706 87.2869C89.5097 87.2823 89.4499 87.2682 89.3933 87.2452C89.2801 87.4359 89.1808 87.6345 89.0962 87.8396C88.971 88.1472 88.4705 88.0116 88.5748 87.6988L88.606 87.631C86.74 89.3215 84.7873 90.9139 82.756 92.4018C80.2689 94.211 77.8861 95.7544 76.9007 98.8254C76.4097 100.613 76.0284 102.429 75.7588 104.264L74.6013 110.39L72.2603 122.664C72.1977 122.992 72.6983 123.133 72.7817 122.804L75.0237 111.047C75.738 107.303 76.2698 103.471 77.2188 99.7795C77.6023 98.0718 78.4928 96.5198 79.7736 95.3268C81.1344 94.0911 82.7403 93.1213 84.2055 92.0159C86.1711 90.5248 88.0534 88.9345 89.8626 87.2556C89.7689 87.2879 89.6691 87.2986 89.5706 87.2869Z" fill="#196132"/>
<path d="M84.2686 97.4436L94.9885 91.1973L78.528 81.7339L70.0605 88.8041" fill="#021E6A"/>
<path opacity="0.38" d="M84.2686 97.4436L94.9885 91.1973L78.528 81.7339L70.0605 88.8041" fill="black"/>
<path d="M81.4893 85.123C81.4893 85.123 84.3049 97.6001 84.2632 97.4488C84.2214 97.2976 70.3784 89.8573 70.2845 89.5914C70.1907 89.3255 66.6348 76.666 66.6348 76.666L81.4893 85.123Z" fill="#021E6A"/>
<path d="M91.6257 85.3317L87.736 87.5789C87.736 87.5789 85.0196 89.7375 84.9205 90.1181C84.8214 90.4987 83.6379 92.9805 83.8777 93.4759C84.1176 93.9712 84.9205 93.1578 84.9205 93.1578C84.9205 93.1578 84.592 94.0285 84.9205 93.9764C85.249 93.9243 85.7652 94.0494 86.151 93.455C86.151 93.455 86.2813 94.1328 86.7089 93.9764C87.1364 93.82 87.8872 92.5582 87.8872 92.5582C87.8872 92.5582 87.8873 93.2412 88.3409 93.1578C88.7945 93.0744 89.733 90.5873 89.733 90.5873C90.695 90.3362 91.5652 89.8151 92.2409 89.0857L94.4099 87.9647L91.6257 85.3317Z" fill="#FCBF81"/>
<path d="M81.3059 79.273C81.3059 79.273 77.7969 83.0166 77.8804 83.0688L81.0087 84.8259L83.8191 81.5567L81.3059 79.273Z" fill="#FCBF81"/>
<defs>
<linearGradient id="paint0_linear" x1="45.1109" y1="85.3525" x2="33.562" y2="101.203" gradientUnits="userSpaceOnUse">
<stop stop-color="#7F47DD"/>
<stop offset="1" stop-color="white"/>
</linearGradient>
<linearGradient id="paint1_linear" x1="106.626" y1="111.839" x2="51.879" y2="146.252" gradientUnits="userSpaceOnUse">
<stop stop-color="#CDAE08"/>
<stop offset="1" stop-color="#CDAE08" stop-opacity="0"/>
</linearGradient>
</defs>
</svg>
