<svg width="78" height="30" viewBox="0 0 78 30" fill="none" xmlns="http://www.w3.org/2000/svg">
<path d="M34.8135 27.3046V23.8564H37.4837V24.2635H35.3022V25.3187H37.344V25.7238H35.3022V26.8976H37.5683V27.3046H34.8135Z" fill="#BFD9FF"/>
<path d="M39.9214 27.3046V26.9904C39.8439 27.1091 39.7337 27.2062 39.6023 27.2715C39.4709 27.3369 39.3232 27.3681 39.1745 27.3619C38.9644 27.3626 38.7589 27.3048 38.5842 27.1959C38.3992 27.084 38.2523 26.9249 38.161 26.7375C38.0591 26.5238 38.0092 26.2916 38.015 26.0577C38.0106 25.8258 38.0559 25.5953 38.1483 25.38C38.2265 25.189 38.3662 25.0253 38.5482 24.9116C38.7258 24.8043 38.9333 24.7479 39.1448 24.7496C39.2883 24.7479 39.4302 24.7782 39.5587 24.838C39.6871 24.8978 39.7984 24.9854 39.8833 25.0934V23.8564H40.3339V27.3046H39.9214ZM38.4889 26.0577C38.4669 26.3126 38.5418 26.5666 38.7005 26.775C38.761 26.8485 38.8384 26.9081 38.9271 26.9495C39.0158 26.9909 39.1134 27.013 39.2126 27.0141C39.3095 27.0147 39.4053 26.9945 39.4926 26.9551C39.5799 26.9157 39.6563 26.8582 39.7161 26.7869C39.8725 26.5865 39.9475 26.3406 39.9277 26.0933C39.9499 25.8273 39.8754 25.562 39.7161 25.3404C39.6548 25.2655 39.5757 25.2049 39.485 25.1634C39.3943 25.1219 39.2945 25.1007 39.1935 25.1013C39.096 25.1007 38.9997 25.1211 38.912 25.1608C38.8243 25.2006 38.7476 25.2587 38.6878 25.3306C38.5365 25.5454 38.4665 25.8014 38.4889 26.0577Z" fill="#BFD9FF"/>
<path d="M42.8114 27.3045V26.937C42.7211 27.0696 42.5959 27.1783 42.4477 27.2527C42.2995 27.3271 42.1333 27.3647 41.965 27.3618C41.8123 27.3623 41.661 27.3334 41.5207 27.2769C41.4016 27.2317 41.2967 27.1589 41.216 27.0654C41.1464 26.9705 41.0995 26.8627 41.0785 26.7493C41.0561 26.6186 41.0469 26.4863 41.051 26.3541V24.8068H41.5038V26.19C41.4982 26.3394 41.5074 26.4889 41.5313 26.6366C41.5552 26.7427 41.6199 26.8369 41.7133 26.9014C41.814 26.9658 41.9341 26.9983 42.056 26.9943C42.1907 26.9948 42.323 26.9613 42.439 26.8975C42.5522 26.8379 42.6409 26.7447 42.6908 26.6327C42.7472 26.4749 42.7723 26.3088 42.7648 26.1426V24.8048H43.2197V27.3025L42.8114 27.3045Z" fill="#BFD9FF"/>
<path d="M45.6763 26.3896L46.1228 26.443C46.0892 26.7034 45.9554 26.9436 45.7462 27.1188C45.541 27.2827 45.2777 27.3694 45.0077 27.3618C44.8434 27.3678 44.6796 27.3411 44.5271 27.2835C44.3747 27.226 44.237 27.1388 44.1233 27.0279C43.885 26.7585 43.7662 26.4142 43.7911 26.0655C43.7859 25.8223 43.8349 25.5807 43.935 25.3561C44.0213 25.1636 44.175 25.0041 44.3709 24.9036C44.5647 24.8021 44.7834 24.749 45.0056 24.7495C45.2607 24.7361 45.5127 24.8059 45.7187 24.9471C45.9134 25.0954 46.0405 25.3073 46.0741 25.5399L45.634 25.6031C45.6054 25.4578 45.5267 25.3252 45.4097 25.2257C45.3026 25.1402 45.1656 25.0944 45.0247 25.0973C44.9193 25.0942 44.8145 25.1134 44.7181 25.1534C44.6218 25.1935 44.5363 25.2533 44.4682 25.3285C44.3067 25.5386 44.2316 25.7961 44.2566 26.0537C44.2345 26.3129 44.3093 26.5713 44.4682 26.7848C44.5334 26.859 44.616 26.9182 44.7095 26.9579C44.803 26.9976 44.905 27.0168 45.0077 27.014C45.1723 27.0187 45.3324 26.9634 45.4542 26.8599C45.5846 26.732 45.6631 26.5657 45.6763 26.3896Z" fill="#BFD9FF"/>
<path d="M48.2558 26.9964C48.1124 27.1163 47.9477 27.2119 47.7691 27.279C47.6096 27.3353 47.4403 27.3634 47.2698 27.362C47.0256 27.3774 46.7841 27.3069 46.5927 27.1644C46.5105 27.0924 46.4466 27.0041 46.4056 26.906C46.3647 26.808 46.3477 26.7026 46.3561 26.5976C46.3644 26.4927 46.3977 26.3908 46.4537 26.2994C46.5097 26.208 46.5868 26.1295 46.6795 26.0696C46.7794 26.0074 46.8895 25.9607 47.0053 25.9313C47.1383 25.9013 47.2733 25.8802 47.4095 25.8681C47.6833 25.8436 47.9539 25.7946 48.2177 25.7218C48.2177 25.6626 48.2177 25.627 48.2177 25.6112C48.2252 25.5453 48.2177 25.4788 48.1958 25.4158C48.174 25.3528 48.1382 25.2948 48.0907 25.2456C47.942 25.1413 47.7579 25.0908 47.5724 25.1033C47.4072 25.0913 47.2422 25.1279 47.1005 25.2081C46.9824 25.3034 46.9032 25.434 46.8763 25.5776L46.4319 25.5223C46.4613 25.3668 46.5295 25.2199 46.6308 25.0935C46.736 24.9757 46.8746 24.888 47.0307 24.8405C47.2261 24.7783 47.4316 24.7483 47.638 24.7516C47.8274 24.7464 48.0164 24.7718 48.1965 24.8267C48.3177 24.8657 48.4258 24.9338 48.5097 25.0243C48.5813 25.1075 48.63 25.2059 48.6514 25.3108C48.6709 25.4417 48.6787 25.5739 48.6747 25.706V26.2692C48.6677 26.5191 48.6769 26.7692 48.7022 27.0181C48.7235 27.1228 48.7628 27.2236 48.8186 27.3165H48.3468C48.2951 27.2161 48.2642 27.1075 48.2558 26.9964ZM48.2177 26.0518C47.9778 26.1301 47.7295 26.1837 47.4772 26.2119C47.3421 26.2244 47.2093 26.2522 47.0815 26.2949C47.0083 26.3236 46.9463 26.3726 46.9038 26.4352C46.8617 26.4936 46.8396 26.5625 46.8403 26.6328C46.8391 26.6863 46.8506 26.7394 46.874 26.7883C46.8974 26.8372 46.9321 26.8806 46.9757 26.9154C47.0913 26.9974 47.235 27.0375 47.3798 27.028C47.5423 27.0307 47.7027 26.9939 47.8453 26.9213C47.9756 26.8545 48.0806 26.7516 48.1458 26.6269C48.2016 26.4923 48.2261 26.3481 48.2177 26.204V26.0518Z" fill="#BFD9FF"/>
<path d="M50.3713 26.9251L50.4368 27.3005C50.3243 27.3244 50.2094 27.337 50.0941 27.3381C49.9657 27.3446 49.8376 27.3208 49.7217 27.2689C49.6357 27.2256 49.5684 27.1558 49.5313 27.0713C49.4828 26.9088 49.4642 26.7397 49.4763 26.5714V25.1348H49.142V24.8068H49.4763V24.1863L49.9269 23.9334V24.8068H50.3818V25.1348H49.9269V26.5971C49.9219 26.6754 49.929 26.7539 49.9481 26.8303C49.9655 26.8636 49.9927 26.8917 50.0264 26.9113C50.0745 26.935 50.1286 26.946 50.1829 26.9429C50.2461 26.941 50.309 26.9351 50.3713 26.9251Z" fill="#BFD9FF"/>
<path d="M50.8197 24.3425V23.8564H51.2725V24.3425H50.8197ZM50.8197 27.3066V24.8069H51.2725V27.3046L50.8197 27.3066Z" fill="#BFD9FF"/>
<path d="M51.7973 26.0556C51.7973 25.5932 51.9349 25.2494 52.2099 25.0281C52.4452 24.8403 52.7469 24.741 53.0562 24.7495C53.2234 24.7451 53.3897 24.7736 53.5442 24.8332C53.6988 24.8927 53.8382 24.982 53.9534 25.0953C54.0754 25.2207 54.1693 25.3676 54.2297 25.5275C54.29 25.6873 54.3155 25.8568 54.3046 26.026C54.3175 26.2876 54.2638 26.5483 54.148 26.7867C54.0487 26.9692 53.8913 27.1183 53.6973 27.2136C53.5033 27.3147 53.2848 27.3678 53.0626 27.3677C52.8941 27.3739 52.726 27.3471 52.5693 27.2889C52.4126 27.2306 52.2707 27.1424 52.1528 27.0298C52.0278 26.8973 51.9321 26.743 51.8711 26.5758C51.8101 26.4086 51.785 26.2319 51.7973 26.0556ZM52.2628 26.0556C52.2426 26.3127 52.3222 26.5681 52.4871 26.7749C52.5572 26.8503 52.6438 26.9107 52.7411 26.9521C52.8384 26.9936 52.944 27.015 53.051 27.015C53.1579 27.015 53.2635 26.9936 53.3608 26.9521C53.4581 26.9107 53.5447 26.8503 53.6148 26.7749C53.7807 26.564 53.8603 26.3047 53.8391 26.0438C53.8589 25.7915 53.7774 25.5415 53.6106 25.3423C53.5428 25.2657 53.4573 25.2045 53.3606 25.163C53.2639 25.1216 53.1584 25.1012 53.052 25.1032C52.9449 25.1012 52.8387 25.1214 52.741 25.1624C52.6433 25.2034 52.5566 25.2642 52.4871 25.3403C52.3218 25.5454 52.2414 25.7995 52.2607 26.0556H52.2628Z" fill="#BFD9FF"/>
<path d="M54.8377 27.3046V24.8069H55.246V25.1606C55.337 25.0296 55.4628 24.9228 55.6111 24.8508C55.7595 24.7788 55.9253 24.7439 56.0923 24.7495C56.2444 24.7478 56.3951 24.7761 56.5345 24.8325C56.6553 24.8749 56.7609 24.9482 56.8392 25.044C56.9095 25.1376 56.9578 25.244 56.981 25.3562C57.0021 25.4929 57.0106 25.6311 57.0064 25.7692V27.3046H56.5536V25.785C56.5611 25.6512 56.5424 25.5173 56.4986 25.3898C56.462 25.3057 56.3955 25.2359 56.3103 25.1922C56.2151 25.1391 56.1058 25.1123 55.995 25.1151C55.8108 25.1122 55.632 25.1735 55.4936 25.287C55.3539 25.4016 55.282 25.619 55.282 25.9391V27.3026L54.8377 27.3046Z" fill="#BFD9FF"/>
<path d="M60.8912 26.3897L61.3376 26.4431C61.3048 26.7033 61.1717 26.9436 60.9632 27.1189C60.7578 27.2825 60.4946 27.3691 60.2247 27.3619C60.0604 27.3679 59.8966 27.3412 59.7441 27.2836C59.5917 27.2261 59.454 27.1389 59.3403 27.028C59.102 26.7586 58.9831 26.4143 59.0081 26.0656C59.0018 25.8223 59.0509 25.5805 59.152 25.3562C59.2383 25.1637 59.392 25.0042 59.5879 24.9037C59.7813 24.8013 60.0002 24.7482 60.2226 24.7496C60.4776 24.7365 60.7296 24.8063 60.9356 24.9472C61.1289 25.0967 61.2556 25.308 61.2911 25.54L60.851 25.6032C60.8216 25.4582 60.7429 25.3259 60.6267 25.2258C60.5191 25.1398 60.3812 25.0941 60.2395 25.0974C60.1341 25.0944 60.0294 25.1137 59.9331 25.1537C59.8367 25.1938 59.7513 25.2535 59.6831 25.3286C59.5226 25.5392 59.4476 25.7963 59.4715 26.0538C59.4494 26.313 59.5241 26.5714 59.6831 26.7849C59.7481 26.8588 59.8303 26.9178 59.9234 26.9576C60.0165 26.9973 60.1181 27.0166 60.2205 27.0141C60.3851 27.0188 60.5452 26.9635 60.6669 26.86C60.7989 26.7329 60.8783 26.5663 60.8912 26.3897Z" fill="#BFD9FF"/>
<path d="M61.5576 26.0559C61.5576 25.5935 61.6951 25.2496 61.9702 25.0283C62.2052 24.8402 62.5071 24.7408 62.8165 24.7497C62.9839 24.744 63.1507 24.7713 63.306 24.8299C63.4613 24.8884 63.6016 24.9769 63.7178 25.0896C63.8395 25.2152 63.9332 25.3622 63.9935 25.522C64.0538 25.6818 64.0795 25.8512 64.0691 26.0203C64.0819 26.2819 64.0283 26.5426 63.9125 26.7811C63.8115 26.9623 63.6545 27.111 63.4618 27.2079C63.2647 27.3107 63.0423 27.3638 62.8165 27.362C62.648 27.3683 62.4799 27.3415 62.3232 27.2833C62.1664 27.2251 62.0245 27.1368 61.9067 27.0241C61.6582 26.757 61.5327 26.409 61.5576 26.0559ZM62.0231 26.0559C62.0019 26.3131 62.0816 26.5687 62.2473 26.7751C62.3167 26.8515 62.4034 26.9125 62.5011 26.9539C62.5988 26.9952 62.705 27.0158 62.8123 27.0142C62.9191 27.0158 63.025 26.995 63.122 26.9533C63.2191 26.9116 63.3048 26.85 63.373 26.7732C63.5399 26.5628 63.6196 26.303 63.5972 26.042C63.6179 25.79 63.5371 25.5399 63.3709 25.3405C63.3027 25.2643 63.2172 25.2033 63.1206 25.1619C63.0239 25.1205 62.9186 25.0999 62.8123 25.1014C62.7052 25.0994 62.599 25.1197 62.5013 25.1607C62.4036 25.2017 62.3169 25.2624 62.2473 25.3386C62.0812 25.544 62.0014 25.7992 62.0231 26.0559Z" fill="#BFD9FF"/>
<path d="M64.5978 27.3045V24.8068H65.004V25.1565C65.0908 25.0299 65.2108 24.926 65.3526 24.8548C65.4944 24.7835 65.6534 24.7473 65.8144 24.7495C65.985 24.7434 66.1539 24.7832 66.301 24.8641C66.4276 24.9402 66.5225 25.0546 66.5697 25.1882C66.655 25.0542 66.7761 24.9434 66.9211 24.8664C67.0662 24.7895 67.2302 24.7492 67.397 24.7495C67.508 24.7413 67.6196 24.7546 67.7248 24.7886C67.8301 24.8226 67.9266 24.8766 68.0085 24.9471C68.1654 25.1236 68.2414 25.3508 68.2201 25.5794V27.2946H67.7694V25.7138C67.7759 25.5905 67.7609 25.467 67.725 25.3482C67.6953 25.2728 67.6394 25.2087 67.5663 25.1664C67.484 25.1203 67.3893 25.097 67.2933 25.0992C67.2067 25.0972 67.1205 25.1117 67.04 25.142C66.9596 25.1722 66.8867 25.2175 66.8257 25.2751C66.7563 25.3525 66.704 25.4419 66.6717 25.5382C66.6394 25.6345 66.6277 25.7358 66.6374 25.8363V27.2867H66.1846V25.6881C66.1962 25.5392 66.1577 25.3907 66.0746 25.2632C66.0307 25.2141 65.9746 25.1756 65.9112 25.1512C65.8478 25.1267 65.779 25.117 65.7107 25.1229C65.5853 25.1229 65.4624 25.155 65.3552 25.2158C65.2472 25.2816 65.1654 25.3788 65.1225 25.4925C65.066 25.6611 65.041 25.8376 65.0484 26.0141V27.3104L64.5978 27.3045Z" fill="#BFD9FF"/>
<path d="M68.8953 28.257V24.8068H69.3184V25.1309C69.4036 25.0143 69.5156 24.9171 69.6464 24.8464C69.7836 24.7784 69.9375 24.745 70.0928 24.7495C70.3076 24.7462 70.5185 24.8033 70.6979 24.9136C70.8762 25.0292 71.0138 25.1914 71.0936 25.3799C71.1842 25.5881 71.2295 25.8112 71.2269 26.0359C71.2315 26.2738 71.181 26.5097 71.0788 26.7275C70.9936 26.9143 70.8519 27.0737 70.6712 27.1864C70.4904 27.2991 70.2784 27.36 70.0611 27.3619C69.9189 27.3641 69.7785 27.3328 69.6527 27.271C69.5389 27.2159 69.4387 27.1391 69.3586 27.0457V28.257H68.8953ZM69.3057 26.0636C69.2847 26.3172 69.3596 26.5696 69.5173 26.7769C69.5769 26.8492 69.6535 26.9077 69.7412 26.9478C69.8289 26.9879 69.9253 27.0085 70.023 27.0081C70.1232 27.0078 70.222 26.9861 70.3118 26.9446C70.4016 26.9032 70.4802 26.8431 70.5414 26.769C70.7017 26.5524 70.7765 26.2905 70.7529 26.028C70.7738 25.7739 70.6989 25.5209 70.5414 25.3127C70.4829 25.2399 70.4072 25.1806 70.3203 25.1395C70.2333 25.0984 70.1374 25.0765 70.0399 25.0756C69.939 25.0784 69.8402 25.1029 69.751 25.1471C69.6619 25.1913 69.5848 25.254 69.5258 25.3305C69.3621 25.5452 69.2842 25.8067 69.3057 26.0695V26.0636Z" fill="#BFD9FF"/>
<path d="M71.7579 27.3046V23.8564H72.2107V27.3046H71.7579Z" fill="#BFD9FF"/>
<path d="M74.7476 26.5003L75.2173 26.5536C75.1558 26.7892 75.0103 26.9982 74.8047 27.1464C74.5472 27.3027 74.2415 27.375 73.9354 27.3521C73.6292 27.3292 73.3398 27.2125 73.1121 27.02C72.8696 26.7585 72.7466 26.4187 72.7693 26.0734C72.743 25.7145 72.8674 25.3601 73.1163 25.0854C73.2317 24.9707 73.372 24.8803 73.5278 24.8203C73.6836 24.7603 73.8513 24.7322 74.0198 24.7376C74.1855 24.7341 74.35 24.7642 74.502 24.826C74.654 24.8877 74.7898 24.9796 74.8999 25.0953C75.1417 25.3625 75.2638 25.7065 75.2406 26.0557C75.2406 26.0794 75.2406 26.1169 75.2406 26.1683H73.2475C73.2457 26.3994 73.3337 26.6234 73.495 26.7986C73.5667 26.87 73.6537 26.9264 73.7503 26.9642C73.8469 27.002 73.951 27.0203 74.0557 27.018C74.2073 27.021 74.3557 26.978 74.4789 26.8955C74.6081 26.7912 74.7015 26.6538 74.7476 26.5003ZM74.7603 25.8166C74.7568 25.6458 74.6969 25.4802 74.5889 25.3423C74.522 25.2638 74.4366 25.2009 74.3393 25.1584C74.2421 25.1159 74.1356 25.095 74.0282 25.0973C73.9307 25.0956 73.8338 25.1122 73.7433 25.1461C73.6528 25.1801 73.5705 25.2307 73.5014 25.2949C73.3537 25.4345 73.267 25.6205 73.2581 25.8166H74.7603Z" fill="#BFD9FF"/>
<path d="M75.4862 27.3045L76.4637 26.0063L75.5581 24.8068H76.1251L76.5356 25.3997C76.6139 25.5123 76.6753 25.5973 76.7239 25.6802C76.7959 25.5775 76.8657 25.4826 76.9355 25.4036L77.3862 24.8108H77.9278L77.0032 25.9964L77.9998 27.3184H77.4391L76.8911 26.5418L76.7451 26.3323L76.0426 27.3204L75.4862 27.3045Z" fill="#BFD9FF"/>
<path d="M27.7324 22.3552V7.55469L13.8652 14.8917V29.785L27.7324 22.3552Z" fill="#F0CC0D"/>
<path d="M13.865 0L0 7.55437L13.865 14.8914L27.7321 7.55437L13.865 0Z" fill="#FFEB3C"/>
<path d="M0 22.4796V7.55469L13.865 14.9648V30.0004L0 22.4796Z" fill="#FFE600"/>
<path d="M38.3744 20.7483H35.9561V5.64746H38.3744V20.7483ZM51.2958 7.64523H48.632V20.7483H46.2242V7.64523H43.5582V5.64746H51.2958V7.64523Z" fill="#4987E3"/>
<path d="M63.1553 20.7483H56.4502V5.64746H63.0939V7.64523H58.8622V12.0538H62.4994V14.012H58.8686V18.7545H63.1553V20.7483ZM76.6965 19.3651C76.6965 20.2872 76.2029 20.7483 75.2155 20.7483H70.1692C69.2129 20.7483 68.734 20.2872 68.7326 19.3651V7.03859C68.7326 6.11644 69.2115 5.65537 70.1692 5.65537H75.2112C76.1986 5.65537 76.6923 6.11644 76.6923 7.03859V10.5698H74.2803V7.58792H71.151V18.8098H74.2803V15.6343H76.6881L76.6965 19.3651Z" fill="#094FB7"/>
</svg>
